<?xml version="1.0" encoding="utf-8"?>
<!-- Generator: Adobe Illustrator 24.0.0, SVG Export Plug-In . SVG Version: 6.00 Build 0)  -->
<svg version="1.1" id="Layer_1" xmlns="http://www.w3.org/2000/svg" xmlns:xlink="http://www.w3.org/1999/xlink" x="0px" y="0px"
	 viewBox="0 0 300 110.5" style="enable-background:new 0 0 300 110.5;" xml:space="preserve">
<style type="text/css">
	.st0{fill:#232323;}
	.st1{fill:url(#Path_1268_1_);}
	.st2{fill:url(#Path_1269_1_);}
	.st3{fill:url(#Path_1270_1_);}
	.st4{fill:url(#Path_1271_1_);}
	.st5{fill:url(#Path_1272_1_);}
	.st6{fill:url(#Path_1273_1_);}
	.st7{fill:url(#Path_1274_1_);}
	.st8{fill:url(#Path_1275_1_);}
	.st9{fill:url(#Path_1276_1_);}
	.st10{fill:url(#Path_1277_1_);}
	.st11{fill:url(#Path_1278_1_);}
	.st12{opacity:0.2;}
	.st13{opacity:0.82;}
	.st14{fill:url(#Path_1282_1_);}
	.st15{fill:url(#Path_1283_1_);}
	.st16{fill:url(#Path_1284_1_);}
</style>
<g id="Group_648" transform="translate(0.045)">
	<g id="Group_644" transform="translate(62.526 24.745)">
		<path id="Path_1251" class="st0" d="M53.1,16.1c-0.1,0.3-0.2,0.5-0.3,0.8c-0.2,0.2-0.4,0.4-0.6,0.5c-0.5,0.1-1,0.2-1.6,0.1h-6.4
			c-0.5-0.1-1.1,0.1-1.5,0.4c-0.8,1.1-1.4,2.4-1.7,3.8c-0.5,1.9-1,3.7-1.3,5.6c-0.3,1.5-0.5,2.9-0.5,4.4c0,0.2,0.2,0.4,0.6,0.6
			c0.3,0.2,0.7,0.3,1,0.4h3.1c0.4,0,0.8-0.1,1.1-0.1c0.2-0.1,0.4-0.2,0.6-0.3c0.2-0.1,0.3-0.3,0.4-0.4c0.1-0.1,0.1-0.2,0.2-0.3
			c0.1-0.2,0.1-0.4,0.2-0.5c0.1-0.4,0.2-0.9,0.4-1.5c0.2-0.7,0.3-1.3,0.5-1.9c0.2-0.7,0.3-1.1,0.4-1.5h-3.2c-0.1,0-0.3-0.1-0.5-0.1
			c-0.1,0-0.2,0-0.4-0.1c-0.3-0.2-0.4-0.4-0.5-0.7c0-0.1,0.1-0.3,0.1-0.4c0.1-0.4,0.2-0.8,0.2-1.3s0.2-0.8,0.2-1.3H51
			c0.3,0,0.5,0,0.8,0.1c0.2,0.1,0.4,0.2,0.6,0.4c0.1,0.1,0.1,0.3,0.1,0.4c0,0.2,0.1,0.4,0.1,0.6c-0.2,0.8-0.5,2-0.8,3.5
			c-0.4,1.5-0.7,3.1-1.1,4.6s-0.7,2.7-0.8,3.5c-0.1,0.5-0.3,0.9-0.6,1c-0.3,0.3-0.8,0.5-1.3,0.5H37.5c-0.7,0-1.4,0-2-0.1
			c-0.3,0-0.7-0.1-1-0.4l-1-1c-0.2-0.4-0.2-0.8-0.2-1.3c0.1-1.5,0.2-3.1,0.5-4.6c0.3-2,0.7-4.1,1.3-6.3c0.5-2,1.1-3.9,1.8-5.8
			c0.4-1.2,1-2.2,1.9-3.1c0.5-0.3,1.1-0.4,1.6-0.5c0.8-0.1,1.5-0.2,2.3-0.2h10.7C53.3,15,53.1,15.8,53.1,16.1z"/>
		<path id="Path_1252" class="st0" d="M55.1,18.2h5.3c0.1,0,0.2,0.1,0.3,0.1c0.1,0.1,0.2,0.1,0.2,0.2c0.1,0.3,0.1,0.6,0.1,0.8
			c-0.2,0.8-0.5,2-0.8,3.5c-0.4,1.5-0.7,3-1.1,4.4c-0.4,1.5-0.7,2.6-0.8,3.5c-0.1,0.8-0.2,1.2-0.2,1.3c0,0.3,0.1,0.5,0.2,0.7
			c0.2,0.2,0.9,0.4,2.1,0.4c0.5,0,1.1,0,1.6-0.1c0.5-0.1,0.8-0.1,0.8-0.2c0.1-0.1,0.2-0.3,0.3-0.5c0.1-0.2,0.1-0.4,0.2-0.5
			c0.1-0.2,0.1-0.4,0.2-0.7c0.2-0.9,0.4-2.1,0.8-3.7c0.4-1.6,0.7-3.1,1-4.7c0.4-1.6,0.6-2.8,0.8-3.7c0-0.2-0.1-0.5-0.2-0.7
			c-0.1-0.2-0.4-0.2-0.8-0.2h5.2c0.1,0,0.1,0.1,0.2,0.2s0.2,0.2,0.2,0.2c0.1,0.2,0.1,0.5,0.1,0.8c-0.2,1.2-0.6,2.8-1.1,4.9
			c-0.5,2.1-1,4.2-1.4,6.3c-0.5,2.1-0.8,3.7-1.1,4.9c0,0.3,0,0.5,0.1,0.8c0.2,0.3,0.5,0.5,0.8,0.5h-5.3c-0.1,0-0.1-0.1-0.2-0.1
			c-0.1-0.1-0.2-0.1-0.2-0.2c-0.1-0.2-0.2-0.4-0.2-0.6c0.1-0.4,0.2-0.9,0.2-1.3c-0.1,0.2-0.2,0.5-0.4,0.8c-0.1,0.2-0.2,0.5-0.4,0.8
			c-0.1,0.1-0.1,0.2-0.2,0.2c-0.1,0.1-0.2,0.1-0.3,0.1c-0.3,0.1-0.7,0.2-1.1,0.2h-4.8c-0.7,0-1.3-0.2-1.8-0.7
			c-0.5-0.4-0.8-0.9-0.8-1.6c0-0.6,0.1-1.2,0.3-1.7c0.2-1,0.5-2.3,1-4.1c0.4-1.7,0.8-3.5,1.2-5.2c0.4-1.7,0.7-3.1,1-4.1
			c0-0.3,0-0.6-0.1-0.8C55.7,18.3,55.4,18.2,55.1,18.2z"/>
		<path id="Path_1253" class="st0" d="M74,18.4c-0.1-0.1-0.2-0.2-0.4-0.3h4.5c0.1,0,0.1,0,0.2,0.1c0.1,0.1,0.2,0.1,0.3,0.1
			s0.2,0.1,0.2,0.1c0.3,0.2,0.5,0.5,0.5,0.8c0,0.2-0.1,0.4-0.1,0.6c0,0.2-0.1,0.4-0.1,0.6c0.2-0.2,0.3-0.5,0.5-0.7
			c0.2-0.2,0.3-0.5,0.5-0.7c0.1-0.1,0.2-0.3,0.3-0.4c0.2-0.1,0.2-0.2,0.4-0.2c0.3-0.2,0.6-0.3,1-0.3h3.5c0.7,0,1.5,0.2,2,0.7
			c0.6,0.5,0.9,1.3,0.9,2.1c0,0.4-0.1,0.9-0.2,1.3c-0.2,1-0.5,2.3-1,4c-0.4,1.7-0.8,3.4-1.2,5c-0.4,1.7-0.7,3-1,4
			c0,0.3,0.1,0.7,0.2,1c0.1,0.3,0.4,0.5,0.7,0.7h-5c-0.2,0-0.5-0.1-0.6-0.4c-0.1-0.1-0.1-0.3-0.1-0.5c0-0.1,0-0.2,0.1-0.4
			c0.2-0.9,0.5-2.1,0.8-3.7l1.1-4.7c0.4-1.6,0.7-2.8,0.8-3.7c0-0.4,0-0.8-0.2-1.2c-0.2-0.3-0.8-0.4-1.8-0.4c-0.6,0-1.2,0.1-1.7,0.3
			c-0.4,0.1-0.6,0.5-0.7,1.1c-0.2,0.9-0.5,2.2-1,3.7c-0.4,1.6-0.8,3.2-1.2,4.8c-0.4,1.6-0.7,2.8-1,3.7c0,0.2,0,0.3,0.1,0.5
			c0.1,0.1,0.1,0.2,0.1,0.2s0.1,0.1,0.1,0.2c0.1,0.1,0.2,0.2,0.3,0.2c0.1,0.1,0.2,0.1,0.4,0.1h-4.8c-0.3,0-0.6-0.1-0.8-0.2
			c-0.3-0.2-0.4-0.6-0.4-0.9c0.2-0.7,0.4-1.7,0.8-3.1c0.4-1.4,0.8-3.2,1.3-5.5c0.5-2.3,1-3.9,1.2-4.9c0.2-1,0.4-1.9,0.6-2.5
			c0-0.3-0.1-0.6-0.1-1C74.3,18.6,74.1,18.5,74,18.4z"/>
		<path id="Path_1254" class="st0" d="M94.4,36.8c-1.1,0-2.3-0.2-3.4-0.5c-0.8-0.2-1.6-0.7-2.1-1.4c-0.6-1.2-0.9-2.5-0.8-3.8
			c0-1.8,0.3-3.6,0.8-5.3c0.5-1.8,1.3-3.4,2.5-4.9c0.4-0.5,0.9-0.9,1.4-1.3c0.5-0.3,0.9-0.6,1.4-0.8c0.5-0.2,1.1-0.3,1.7-0.4
			c0.6-0.1,1.3-0.1,2-0.1v3.2c-0.6,0-1.2,0.1-1.7,0.2c-0.5,0.2-1,0.6-1.4,1c-0.5,0.8-1,1.7-1.3,2.6c-0.4,1-0.7,2.1-1,3.2
			c-0.2,0.8-0.3,1.7-0.4,2.6c-0.1,0.8,0.3,1.5,0.8,2c0.6,0.4,1.3,0.7,2.1,0.7c0.5,0,1.1-0.1,1.6-0.3c0.4-0.1,0.8-0.4,1-0.8
			c0.5-0.8,0.9-1.7,1.3-2.6c0.4-1,0.8-2.1,1-3.2c0.2-0.9,0.4-1.9,0.4-2.9c0-0.5-0.1-1-0.2-1.5c-0.3-0.7-1.1-1-2.3-1v-3.2
			c1.1,0,2.3,0.2,3.4,0.4c0.9,0.2,1.7,0.6,2.3,1.3c0.7,0.9,1.1,2,1.1,3.1c-0.1,2.9-0.7,5.9-1.9,8.6c-0.4,1.2-1.2,2.3-2.2,3.2
			C98.9,36.1,96.7,36.9,94.4,36.8z"/>
		<path id="Path_1255" class="st0" d="M107.3,18.3c-0.2-0.1-0.3-0.1-0.4-0.1h4.4c0.3,0,0.5,0.1,0.7,0.2c0.1,0,0.1,0.1,0.1,0.1
			c0.1,0.1,0.1,0.1,0.1,0.2s0.1,0.2,0.1,0.2c0.2,0.7,0.4,1.3,0.7,1.9c0.2,0.7,0.4,1.3,0.7,1.9c0.3-0.4,0.6-0.7,0.9-1.1
			c0.4-0.5,0.8-1,1.1-1.4s0.7-0.8,0.9-1.1c0.1-0.2,0.1-0.5,0-0.7c0-0.1-0.1-0.1-0.3-0.2c-0.1,0-0.2-0.1-0.3-0.1h4.3
			c0.3,0,0.6,0.1,0.8,0.3c0.1,0.2,0.1,0.4,0.1,0.5c0,0.1,0,0.3-0.1,0.4c-0.4,0.5-1.1,1.3-1.9,2.2c-0.8,1-1.6,1.9-2.3,2.8
			c-0.8,1-1.4,1.7-1.9,2.2c0.2,0.7,0.6,1.6,1,2.8l1.3,3.6c0.4,1.2,0.8,2.2,1,2.8c0.1,0.3,0.3,0.5,0.5,0.7c0.1,0,0.2,0.1,0.3,0.1
			c0.1,0.1,0.3,0.1,0.4,0.1h-4.1c-0.3,0-0.6-0.1-1-0.2c-0.2-0.1-0.4-0.2-0.5-0.5c-0.1-0.4-0.4-1-0.6-1.8s-0.5-1.5-0.8-2.3
			c-0.2-0.8-0.5-1.4-0.6-1.8c-0.3,0.4-0.8,0.9-1.3,1.6c-0.5,0.7-1.1,1.3-1.7,2c-0.5,0.7-1,1.2-1.3,1.6c-0.1,0.1-0.1,0.3-0.1,0.5
			c0,0.1,0.1,0.3,0.1,0.4c0.1,0.3,0.4,0.4,0.7,0.5h-4.6c-0.4,0-0.7-0.1-0.8-0.4c0-0.1-0.1-0.2-0.1-0.3c0-0.2,0.1-0.5,0.2-0.7
			c0.5-0.7,1.3-1.6,2.3-2.8s2-2.3,2.9-3.5c1-1.1,1.7-2.1,2.3-2.8c-0.2-0.5-0.5-1.3-0.8-2.3c-0.4-1-0.7-1.9-1.1-2.9
			c-0.4-1-0.7-1.7-0.8-2.3c0-0.2-0.1-0.4-0.3-0.6C107.7,18.3,107.5,18.3,107.3,18.3z"/>
		<path id="Path_1256" class="st0" d="M34,44.1C33.9,44,33.7,44,33.6,44H39c0.1,0,0.3,0.1,0.4,0.1c0.1,0.1,0.2,0.2,0.2,0.2
			c0,0.1,0,0.2,0.1,0.2c0,0.1,0.1,0.2,0.1,0.3c0,1.1,0,2.5,0.1,4.4c0,1.9,0.1,3.7,0.1,5.6s0.1,3.3,0.1,4.4c0.5-1.1,1.3-2.6,2.2-4.6
			s1.9-4,2.8-5.9s1.6-3.5,2.2-4.6h5.2c0,1.1,0,2.7,0.1,4.7c0.1,2,0.1,4,0.1,5.9s0.1,3.5,0.1,4.7c0.4-1,1.1-2.4,1.9-4.2l2.3-5.4
			c0.8-1.8,1.4-3.2,1.9-4.2c0.1-0.2,0.2-0.5,0.3-0.7c0-0.1,0-0.2-0.1-0.2c-0.1-0.1-0.1-0.2-0.1-0.2c-0.1,0-0.1-0.1-0.2-0.1
			c-0.1,0-0.2-0.1-0.3-0.2h4.9c0.2,0,0.4,0.1,0.5,0.2c0.1,0.1,0.2,0.2,0.2,0.3c0.1,0.2,0.1,0.4,0.2,0.5l-0.2,0.5
			c-0.4,0.9-1,2-1.6,3.4c-0.6,1.4-1.8,3.8-3.4,7.4c-1.7,3.6-2.8,6.1-3.4,7.4c-0.6,1.4-1.1,2.5-1.6,3.4h-5c-0.3,0-0.5-0.1-0.7-0.3
			c-0.1-0.1-0.2-0.2-0.3-0.4c-0.1-0.1-0.1-0.2-0.1-0.3v-4.1c0-1.7,0-3.5-0.1-5.2s0-3.1,0-4.1c-0.3,0.6-0.6,1.3-1,2.2
			c-0.4,0.9-1.1,2.3-2,4.4c-1,2-1.7,3.7-2.3,4.9c-0.5,1.2-1,2.2-1.3,2.8h-1.5c-0.7,0-1.3,0-1.9,0.1h-1.5c-0.1,0-0.3-0.1-0.4-0.2
			c-0.1-0.1-0.2-0.2-0.3-0.2c-0.1-0.1-0.2-0.3-0.3-0.7v-6.4c0-2.8,0-5.5-0.1-8.2v-6.4c-0.1-0.2-0.2-0.5-0.3-0.7
			C34.4,44.3,34.2,44.2,34,44.1z"/>
		<path id="Path_1257" class="st0" d="M74.7,61.3l-0.5,2.2l-0.5,2.2c-0.2,0.4-0.5,0.8-0.8,1c-0.5,0.3-1,0.5-1.6,0.5h-6
			c-1.2,0-2.4-0.3-3.4-0.9c-1-1.2-1.4-2.8-1.3-4.4c0-1.3,0.1-2.6,0.4-3.8c0.3-1.3,0.6-2.7,1.1-4c0.4-1.1,0.9-2.2,1.6-3.2
			c0.4-0.7,1-1.3,1.7-1.7c0.6-0.2,1.3-0.4,1.9-0.4c1-0.1,2-0.1,2.9-0.1c1.2,0,2.3,0.1,3.2,0.1c0.7,0,1.4,0.2,2,0.4
			c1.1,0.5,1.7,1.8,1.7,3.8c0,0.9-0.1,1.9-0.3,2.8c-0.1,0.7-0.3,1.4-0.5,2c-0.1,0.4-0.5,0.6-1.4,0.6h-9.4c0-0.1,0-0.1,0.1-0.1
			c0-0.1,0-0.2,0.1-0.4c0.1-0.2,0.1-0.4,0.1-0.5c0.1-0.1,0.1-0.3,0.1-0.5c0.1-0.3,0.1-0.6,0.2-0.8c0.1-0.2,0.1-0.4,0.2-0.7h6.5
			c0.2-0.5,0.2-1,0.2-1.5c0-1.4-0.9-2.1-2.8-2.1c-0.6,0-1.2,0.1-1.8,0.4c-0.4,0.2-0.8,0.5-1.1,1c-0.3,0.5-0.6,1.1-0.8,1.7L65.8,57
			c-0.3,1.4-0.6,2.9-0.7,4.3c0,0.3,0,0.7,0.2,1c0.2,0.4,0.8,0.5,1.9,0.5h3.3c0.6,0,1.2,0,1.8-0.1c0.4-0.1,0.8-0.2,1.1-0.4
			C74,62.1,74.3,61.7,74.7,61.3z"/>
		<path id="Path_1258" class="st0" d="M82,44.1C81.9,44,81.8,44,81.6,44h5.9c0.1,0.2,0.1,0.4,0,0.6c-0.4,1.4-0.8,3.2-1.4,5.7
			c-0.6,2.4-1.2,4.9-1.8,7.3c-0.6,2.4-1.1,4.3-1.4,5.7h3c0.7-0.1,1.3-0.3,1.9-0.7c0.4-0.2,0.7-0.4,1-0.6c0.3-0.2,0.5-0.5,0.6-0.8
			c0.2-0.4,0.4-0.9,0.5-1.4c0.2-0.6,0.3-1.1,0.5-1.7c0.4-1.2,0.7-2.4,0.8-3.7c0.1-0.6-0.1-1.3-0.6-1.7c-0.4-0.3-0.8-0.5-1.3-0.4
			h-1.8c-0.2,0-0.4,0.1-0.7,0.2c-0.1,0.1-0.3,0.1-0.5,0.1c-0.3,0.1-0.5,0.2-0.6,0.5c-0.2,0.3-0.3,0.6-0.5,1c0.1-0.4,0.2-0.9,0.4-1.3
			c0.1-0.4,0.2-0.9,0.4-1.3c0.4-0.7,0.8-1.4,1.2-2c0.1-0.2,0.2-0.3,0.2-0.5c0-0.1,0.1-0.2,0.2-0.3c0.3-0.1,0.6-0.2,0.8-0.1h3.7
			c0.7,0,1.4,0.2,2,0.6c0.7,0.4,1.3,1.1,1.7,1.8c0.3,0.6,0.4,1.3,0.4,2c0,1.1-0.1,2.3-0.4,3.4c-0.3,1.3-0.6,2.6-1,3.9
			c-0.4,1.2-0.9,2.5-1.6,3.6c-0.5,0.9-1.1,1.7-1.9,2.5c-0.4,0.4-1,0.7-1.6,0.8c-0.5,0.1-1.1,0.2-1.6,0.2H79c-0.4,0-0.6-0.1-0.8-0.1
			c-0.1,0-0.2-0.1-0.4-0.3c-0.2-0.2-0.2-0.5-0.2-0.8c0.4-1.6,0.9-3.7,1.6-6.4c0.7-2.7,1.3-5.5,2-8.2s1.1-4.9,1.6-6.4
			c0-0.3,0-0.5-0.2-0.7C82.2,44.2,82.1,44.2,82,44.1z"/>
		<path id="Path_1259" class="st0" d="M122.9,45.5l-0.4,1.4c0,0.2-0.1,0.5-0.4,0.6c-0.1,0.1-0.4,0.1-0.8,0.1H117
			c-0.4,0-0.9,0-1.3,0.1c-0.4,0-0.8,0.1-1.1,0.4c-0.3,0.3-0.6,0.7-0.7,1.1c-0.1,0.5-0.2,1-0.2,1.5c0,0.8,0.5,1.4,1.6,1.8
			c0.2,0.1,0.7,0.2,1.4,0.4c0.7,0.2,1.3,0.4,1.9,0.5c0.5,0.2,1.1,0.4,1.6,0.7c0.5,0.3,1,0.7,1.3,1.2c0.4,0.8,0.6,1.7,0.5,2.6
			c0,0.9-0.1,1.9-0.3,2.8c-0.2,0.9-0.5,1.9-0.8,2.8c-0.3,0.7-0.7,1.4-1.2,1.9c-0.6,0.5-1.2,0.9-1.9,1.2c-0.7,0.3-1.4,0.4-2.2,0.5
			h-9.8c-0.3,0-0.6-0.1-0.8-0.4c-0.2-0.2-0.3-0.5-0.3-0.8c0.2-0.7,0.4-1.4,0.6-2.2c0.2-0.7,0.4-1.4,0.6-2.2h0.4
			c-0.1,0.2-0.1,0.3-0.1,0.5c0,0.3,0.1,0.6,0.4,0.8c0.3,0.2,0.6,0.3,1,0.3h2.9c1.4,0.1,2.9-0.1,4.3-0.5c1-0.3,1.5-1.3,1.7-3
			c0-0.7-0.3-1.3-0.9-1.6c-1-0.4-1.9-0.8-2.9-1.1c-1.1-0.3-2.2-0.8-3.1-1.5c-0.7-0.6-1.1-1.6-1.1-2.5c0-0.9,0.1-1.8,0.2-2.7
			c0.1-0.7,0.3-1.5,0.5-2.2c0.3-0.8,0.7-1.5,1.3-2.2c0.5-0.6,1.1-1.1,1.7-1.5c0.8-0.4,1.7-0.6,2.6-0.5h8.5
			C123.1,44.4,123.1,45,122.9,45.5z"/>
		<path id="Path_1260" class="st0" d="M129.1,67.1c-1.1,0-2.3-0.2-3.4-0.5c-0.8-0.2-1.6-0.7-2.1-1.4c-0.6-1.2-0.9-2.5-0.8-3.8
			c0-1.8,0.3-3.6,0.8-5.3c0.5-1.8,1.4-3.4,2.5-4.9c0.4-0.5,0.9-0.9,1.4-1.3c0.5-0.3,0.9-0.6,1.4-0.8c0.5-0.2,1.1-0.3,1.7-0.4
			c0.6-0.1,1.3-0.1,2-0.1v3.2c-0.6,0-1.2,0.1-1.7,0.2c-0.5,0.2-1,0.6-1.4,1c-0.5,0.8-1,1.7-1.3,2.6c-0.4,1-0.7,2.1-1,3.2
			c-0.2,0.8-0.3,1.7-0.4,2.6c-0.1,0.8,0.3,1.5,0.8,2c0.6,0.4,1.3,0.7,2.1,0.7c0.5,0,1.1-0.1,1.6-0.3c0.4-0.1,0.8-0.4,1-0.8
			c0.5-0.8,0.9-1.7,1.3-2.6c0.4-1,0.8-2.1,1-3.2c0.2-0.9,0.4-1.9,0.4-2.9c0-0.5-0.1-1-0.2-1.5c-0.3-0.7-1.1-1-2.3-1v-3.2
			c1.1,0,2.3,0.2,3.4,0.4c0.9,0.2,1.7,0.6,2.3,1.3c0.7,0.9,1.1,2,1.1,3.1c-0.1,2.9-0.7,5.9-1.9,8.6c-0.4,1.2-1.2,2.3-2.2,3.2
			C133.6,66.4,131.4,67.2,129.1,67.1z"/>
		<path id="Path_1261" class="st0" d="M143.5,44.2c-0.2-0.1-0.3-0.2-0.4-0.2h4.5c0.6,0,1,0.1,1.1,0.2c0.1,0.2,0.2,0.4,0.2,0.6
			c0,0.1,0,0.2-0.1,0.3c-0.3,1.4-0.7,3.5-1.3,6.1l-1.6,7.7c-0.5,2.6-1,4.6-1.3,6.1c-0.1,0.4-0.2,0.8-0.2,1.2c0,0.1,0,0.3,0.1,0.4
			c0.3,0.3,0.5,0.5,0.7,0.6h-4.4c-0.4,0-0.8-0.2-1-0.6c-0.2-0.2-0.2-0.5-0.2-0.7c0-0.3,0.1-0.6,0.2-0.9c0.3-1.4,0.7-3.1,1.1-5.1
			c0.4-2,1-4.5,1.6-7.3c0.6-2.8,1-4.9,1.3-6.3c0-0.2,0.1-0.4,0.1-0.7c0-0.2,0.1-0.3,0.1-0.5c0-0.1-0.1-0.3-0.1-0.4
			C143.7,44.5,143.7,44.3,143.5,44.2z"/>
		<path id="Path_1262" class="st0" d="M150.9,48.5h5.3c0.1,0,0.2,0.1,0.3,0.1c0.1,0.1,0.2,0.1,0.2,0.2c0.1,0.3,0.1,0.6,0.1,0.8
			c-0.2,0.8-0.5,2-0.8,3.5s-0.7,3-1.1,4.4c-0.4,1.5-0.7,2.6-0.8,3.5c-0.1,0.8-0.2,1.2-0.2,1.3c0,0.3,0.1,0.5,0.2,0.7
			c0.2,0.2,0.9,0.4,2.1,0.4c0.5,0,1.1,0,1.6-0.1c0.5-0.1,0.8-0.1,0.8-0.2c0.1-0.1,0.2-0.3,0.3-0.5c0.1-0.2,0.1-0.4,0.2-0.5
			c0.1-0.2,0.1-0.4,0.2-0.7c0.2-0.9,0.4-2.1,0.8-3.7c0.4-1.6,0.7-3.1,1-4.7c0.4-1.6,0.6-2.8,0.8-3.7c0-0.2-0.1-0.5-0.2-0.7
			c-0.1-0.2-0.4-0.2-0.8-0.2h5.2c0.1,0,0.1,0.1,0.2,0.2c0.1,0.1,0.2,0.2,0.2,0.2c0.1,0.2,0.1,0.5,0.1,0.8c-0.2,1.2-0.6,2.8-1.1,4.9
			s-1,4.2-1.4,6.3c-0.5,2.1-0.8,3.7-1.1,4.9c0,0.3,0,0.5,0.1,0.8c0.2,0.3,0.5,0.5,0.8,0.5h-5.3c-0.1,0-0.1-0.1-0.2-0.1
			c-0.1-0.1-0.2-0.1-0.2-0.2c-0.1-0.2-0.2-0.4-0.2-0.6c0.1-0.2,0.1-0.4,0.1-0.7c0-0.2,0.1-0.4,0.1-0.7c-0.1,0.2-0.2,0.5-0.4,0.8
			c-0.1,0.2-0.2,0.5-0.4,0.8c-0.1,0.1-0.1,0.2-0.2,0.2c-0.1,0.1-0.2,0.1-0.3,0.1c-0.3,0.1-0.7,0.2-1.1,0.2h-4.8
			c-0.7,0-1.3-0.2-1.8-0.7c-0.5-0.4-0.8-0.9-0.8-1.6c0-0.6,0.1-1.2,0.3-1.7c0.2-1,0.5-2.3,1-4.1s0.8-3.5,1.2-5.2s0.7-3.1,1-4.1
			c0-0.3,0-0.6-0.1-0.8C151.6,48.6,151.3,48.5,150.9,48.5z"/>
		<path id="Path_1263" class="st0" d="M168.1,50.7c0.1-0.5,0.2-1.1,0.3-1.6c0.6,0,1.2-0.1,1.7-0.2c0.6-0.2,1.2-0.5,1.8-0.8
			c1.1-0.6,1.9-1.7,2.3-2.9h1.6c-0.1,0.5-0.2,1.1-0.4,1.7c-0.1,0.5-0.2,1.1-0.4,1.7h4.3c-0.1,0.5-0.1,1-0.1,1.4
			c-0.1,0.5-0.1,1-0.1,1.4c-0.1,0.3-0.3,0.6-0.6,0.7c-0.3,0.2-0.6,0.3-1,0.2h-2.5c-0.3,0-0.6,0.1-0.9,0.2c-0.2,0.2-0.4,0.5-0.4,0.8
			c-0.2,0.7-0.4,1.6-0.6,2.7c-0.2,1.1-0.5,2.3-0.8,3.4c-0.2,1.1-0.5,2-0.6,2.7c0,0.4,0,0.7,0.1,0.7c0,0.4,0.4,0.6,0.7,0.6h3.1
			c0.2,0,0.4-0.2,0.6-0.3c0.1-0.1,0.2-0.2,0.4-0.3l0.4-0.4c0.1-0.2,0.2-0.3,0.3-0.5c-0.2,0.7-0.4,1.4-0.5,2.1
			c-0.2,0.7-0.4,1.4-0.5,2.1c-0.1,0.5-0.4,0.7-0.6,0.7c-0.1,0-0.1,0.1-0.2,0.1c-0.1,0.1-0.2,0.1-0.4,0.1c-0.1,0-0.2,0.1-0.4,0.1
			h-7.4c-0.3,0-0.5-0.1-0.7-0.4c-0.3-0.2-0.5-0.6-0.5-1c0.2-1,0.5-2.3,0.9-4.1c0.4-1.7,0.8-3.5,1.1-5.2c0.4-1.7,0.7-3.1,0.9-4.1
			h-1.6C167.9,51.8,168,51.2,168.1,50.7z"/>
		<path id="Path_1264" class="st0" d="M181.4,48.6h4.8c0.1,0,0.3,0.1,0.4,0.1c0.1,0.1,0.2,0.1,0.3,0.2c0.1,0.2,0.2,0.5,0.2,0.7
			c-0.2,1.1-0.6,2.8-1.1,4.8c-0.5,2-0.9,4.1-1.4,6.1c-0.5,2-0.8,3.7-1.1,4.8c0,0.2-0.1,0.5-0.1,0.7c0,0.2,0,0.3,0.1,0.4
			c0.3,0.4,0.5,0.5,0.8,0.5h-4.5c-0.3,0-0.6-0.1-0.8-0.4c-0.1-0.3-0.2-0.6-0.2-0.9c0.2-1.1,0.6-2.7,1.1-4.7c0.5-2,0.9-4,1.4-6
			c0.5-2,0.8-3.5,1.1-4.7c0-0.5-0.1-0.9-0.3-1.3C181.9,48.9,181.6,48.7,181.4,48.6z M183,45.5c0.1-0.4,0.2-0.9,0.2-1.3h3.5
			c0.4,0,0.5,0,0.6,0.1c0.1,0,0.2,0.1,0.2,0.2c0,0.1,0.1,0.2,0.1,0.3c0,0.1,0.1,0.2,0.1,0.4c-0.1,0.4-0.2,0.8-0.3,1.2
			c-0.1,0.4-0.2,0.8-0.3,1.2h-3.4c-0.2,0-0.4,0-0.7-0.1c-0.1,0-0.2-0.1-0.2-0.2c0-0.1-0.1-0.1-0.1-0.2c-0.1-0.1-0.1-0.2-0.1-0.2
			C182.9,46.4,183,46,183,45.5L183,45.5z"/>
		<path id="Path_1265" class="st0" d="M193.5,67.1c-1.1,0-2.3-0.2-3.4-0.5c-0.8-0.2-1.6-0.7-2.1-1.4c-0.6-1.2-0.9-2.5-0.8-3.8
			c0-1.8,0.3-3.6,0.8-5.3c0.5-1.8,1.4-3.4,2.5-4.9c0.4-0.5,0.9-0.9,1.4-1.3c0.5-0.3,0.9-0.6,1.4-0.8c0.5-0.2,1.1-0.3,1.7-0.4
			c0.6-0.1,1.3-0.1,2-0.1v3.2c-0.6,0-1.2,0.1-1.7,0.2c-0.5,0.2-1,0.6-1.4,1c-0.5,0.8-1,1.7-1.3,2.6c-0.4,1-0.7,2.1-1,3.2
			c-0.2,0.8-0.3,1.7-0.4,2.6c-0.1,0.8,0.3,1.5,0.8,2c0.6,0.4,1.3,0.7,2.1,0.7c0.5,0,1.1-0.1,1.6-0.3c0.4-0.1,0.8-0.4,1-0.8
			c0.5-0.8,0.9-1.7,1.3-2.6c0.4-1,0.8-2.1,1-3.2c0.2-0.9,0.4-1.9,0.4-2.9c0-0.5-0.1-1-0.2-1.5c-0.3-0.7-1.1-1-2.3-1v-3.2
			c1.1,0,2.3,0.2,3.4,0.4c0.9,0.2,1.7,0.6,2.3,1.3c0.7,0.9,1.1,2,1.1,3.1c-0.1,2.9-0.7,5.9-1.9,8.6c-0.4,1.2-1.2,2.3-2.2,3.2
			C198,66.4,195.8,67.2,193.5,67.1z"/>
		<path id="Path_1266" class="st0" d="M207.5,48.7c-0.1-0.1-0.2-0.2-0.4-0.3h4.5c0.1,0,0.1,0,0.2,0.1c0.1,0.1,0.2,0.1,0.3,0.1
			c0.1,0.1,0.2,0.1,0.2,0.1c0.3,0.2,0.5,0.5,0.5,0.8c0,0.2-0.1,0.4-0.1,0.6c0,0.2-0.1,0.4-0.1,0.6c0.2-0.2,0.3-0.5,0.5-0.7
			s0.3-0.5,0.5-0.7c0.1-0.1,0.2-0.3,0.3-0.4c0.1-0.1,0.3-0.2,0.4-0.2c0.3-0.2,0.6-0.3,1-0.3h3.5c0.7,0,1.5,0.2,2,0.7
			c0.6,0.5,0.9,1.3,0.9,2.1c0,0.4-0.1,0.9-0.2,1.3c-0.2,1-0.5,2.3-1,4c-0.4,1.7-0.8,3.4-1.2,5s-0.7,3-1,4c0,0.3,0.1,0.7,0.2,1
			c0.1,0.3,0.4,0.5,0.7,0.7h-5c-0.2,0-0.5-0.1-0.6-0.4c-0.1-0.1-0.1-0.3-0.1-0.5c0-0.1,0-0.2,0.1-0.4c0.2-0.9,0.5-2.1,0.8-3.7
			l1.1-4.7c0.4-1.6,0.7-2.8,0.8-3.7c0-0.4,0-0.8-0.2-1.2c-0.2-0.3-0.8-0.4-1.8-0.4c-0.6,0-1.2,0.1-1.7,0.3c-0.4,0.1-0.6,0.5-0.7,1.1
			c-0.2,0.9-0.5,2.2-1,3.7c-0.4,1.6-0.8,3.2-1.2,4.8c-0.4,1.6-0.7,2.8-1,3.7c0,0.2,0,0.3,0.1,0.5c0.1,0.1,0.1,0.2,0.1,0.2
			c0.1,0.1,0.1,0.1,0.1,0.2c0.1,0.1,0.2,0.2,0.3,0.2c0.1,0.1,0.2,0.1,0.4,0.1h-4.8c-0.3,0-0.6-0.1-0.8-0.2c-0.3-0.2-0.4-0.6-0.4-0.9
			c0.2-0.7,0.4-1.7,0.8-3.1c0.4-1.4,0.8-3.2,1.3-5.5c0.5-2.3,1-3.9,1.2-4.9c0.2-1,0.4-1.9,0.6-2.5c0-0.3-0.1-0.6-0.1-1
			C207.6,49,207.6,48.8,207.5,48.7z"/>
		<path id="Path_1267" class="st0" d="M237,49.6c-0.1,0.4-0.2,0.7-0.2,1.1c-0.1,0.2-0.2,0.4-0.5,0.5c-0.3,0.2-0.6,0.3-0.9,0.2h-3.8
			c-0.5,0-0.9,0.1-1.2,0.1c-0.3,0-0.6,0.1-0.9,0.3c-0.3,0.2-0.5,0.6-0.6,1c0,0.2-0.1,0.3-0.1,0.5c-0.1,0.2-0.1,0.3-0.1,0.5
			c0,0.1-0.1,0.2-0.1,0.4c0,0.6,0.4,1,1.3,1.3c0.5,0.1,1,0.2,1.4,0.3c0.4,0.1,0.9,0.2,1.4,0.4c0.5,0.2,1,0.4,1.4,0.6
			c0.5,0.2,0.8,0.5,1.1,1c0.4,0.6,0.6,1.4,0.5,2.2c0,0.7-0.1,1.5-0.2,2.2c-0.2,0.8-0.4,1.5-0.8,2.2c-0.2,0.6-0.6,1.1-1.1,1.5
			c-1,0.9-2.4,1.4-3.7,1.4h-8.8c-0.2,0-0.3-0.1-0.5-0.1c-0.1-0.1-0.2-0.2-0.3-0.3c-0.1-0.3-0.1-0.6-0.1-0.8c0.2-0.5,0.3-1.1,0.5-1.6
			c0.2-0.5,0.3-1.1,0.5-1.6h0.2c0,0.3,0,0.6,0.1,1c0.1,0.2,0.2,0.2,0.4,0.3c0.4,0.1,0.8,0.1,1.3,0.1c1.3,0.1,2.2,0.1,2.6,0.1
			c1.1,0,2.2-0.1,3.3-0.4c0.8-0.3,1.3-1.1,1.5-2.5c0-0.5-0.3-1.1-0.8-1.3c-0.9-0.4-1.8-0.7-2.7-0.9c-1-0.3-1.9-0.7-2.8-1.2
			c-0.6-0.5-1-1.2-1-2c0.1-1,0.2-2.1,0.5-3.1c0.3-0.9,0.8-1.8,1.5-2.5c0.3-0.5,0.8-0.9,1.3-1.1c0.7-0.4,1.4-0.6,2.2-0.5h8
			C237.2,48.8,237.1,49.2,237,49.6z"/>
	</g>
	
		<linearGradient id="Path_1268_1_" gradientUnits="userSpaceOnUse" x1="4.2313" y1="200.3367" x2="4.73" y2="198.7387" gradientTransform="matrix(56.8102 0 0 -56.8063 -209.2997 11406.1963)">
		<stop  offset="0" style="stop-color:#FCB654"/>
		<stop  offset="1" style="stop-color:#F89621"/>
	</linearGradient>
	<path id="Path_1268" class="st1" d="M81.8,54.2l-17.6-20c-0.6,1-1.8,1.7-3,1.7h-2.6c-2,0-3.5-1.6-3.5-3.5v-2.6
		c0-1.1,0.5-2.1,1.4-2.8c-8.1-4.8-18.3-3.9-25.4,2.3L8.1,49.5c-9,7.9-9.8,21.5-2,30.5c0,0,0,0,0.1,0.1l20.2,22.9
		c7.9,9,21.5,9.9,30.5,2c0,0,0,0,0.1-0.1l22.9-20.2c9-7.8,9.9-21.4,2.1-30.4C81.8,54.3,81.8,54.2,81.8,54.2z"/>
	
		<linearGradient id="Path_1269_1_" gradientUnits="userSpaceOnUse" x1="43.4123" y1="123.0261" x2="43.7498" y2="121.4646" gradientTransform="matrix(4.184 0 0 -4.1831 -121.8858 541.5143)">
		<stop  offset="0" style="stop-color:#FCB654"/>
		<stop  offset="1" style="stop-color:#F89621"/>
	</linearGradient>
	<path id="Path_1269" class="st2" d="M61.4,33.3h-1.7c-1.3,0-2.3-1-2.3-2.3v-1.7c0-1.3,1-2.3,2.3-2.3h1.7c1.3,0,2.3,1,2.3,2.3V31
		c0,1.2-0.9,2.3-2.2,2.3C61.4,33.3,61.4,33.3,61.4,33.3z"/>
	
		<linearGradient id="Path_1270_1_" gradientUnits="userSpaceOnUse" x1="44.7856" y1="123.2848" x2="45.1232" y2="121.723" gradientTransform="matrix(4.1832 0 0 -4.1832 -110.9129 539.4813)">
		<stop  offset="0" style="stop-color:#FCB654"/>
		<stop  offset="1" style="stop-color:#F89621"/>
	</linearGradient>
	<path id="Path_1270" class="st3" d="M78,30.2h-1.7c-1.3,0-2.3-1-2.3-2.3v-1.7c0-1.3,1-2.3,2.3-2.3H78c1.3,0,2.3,1,2.3,2.3v1.7
		C80.3,29.1,79.3,30.2,78,30.2C78,30.2,78,30.2,78,30.2z"/>
	
		<linearGradient id="Path_1271_1_" gradientUnits="userSpaceOnUse" x1="31.3711" y1="149.0999" x2="31.7102" y2="147.5339" gradientTransform="matrix(6.0383 0 0 -6.038 -115.2496 914.7682)">
		<stop  offset="0" style="stop-color:#FCB654"/>
		<stop  offset="1" style="stop-color:#F89621"/>
	</linearGradient>
	<path id="Path_1271" class="st4" d="M75.9,21.3h-2.5c-1.9,0-3.4-1.5-3.4-3.3c0,0,0,0,0,0v-2.5c0-1.9,1.5-3.4,3.3-3.4c0,0,0,0,0,0
		h2.5c1.9,0,3.4,1.5,3.4,3.3c0,0,0,0,0,0v2.5C79.3,19.7,77.8,21.2,75.9,21.3C76,21.3,76,21.3,75.9,21.3z"/>
	
		<linearGradient id="Path_1272_1_" gradientUnits="userSpaceOnUse" x1="44.582" y1="122.8854" x2="44.918" y2="121.327" gradientTransform="matrix(4.1 0 0 -4.1 -119.3585 512.1231)">
		<stop  offset="0" style="stop-color:#FCB654"/>
		<stop  offset="1" style="stop-color:#F89621"/>
	</linearGradient>
	<path id="Path_1272" class="st5" d="M65,14.6h-1.7c-1.3,0-2.3-1-2.3-2.3v-1.7c0-1.3,1-2.3,2.3-2.3H65c1.3,0,2.3,1,2.3,2.3v1.7
		C67.2,13.6,66.2,14.6,65,14.6L65,14.6z"/>
	
		<linearGradient id="Path_1273_1_" gradientUnits="userSpaceOnUse" x1="46.8499" y1="122.9568" x2="47.1859" y2="121.3984" gradientTransform="matrix(4.1 0 0 -4.1 -101.4805 511.6099)">
		<stop  offset="0" style="stop-color:#FCB654"/>
		<stop  offset="1" style="stop-color:#F89621"/>
	</linearGradient>
	<path id="Path_1273" class="st6" d="M92.1,13.8h-1.7c-1.3,0-2.3-1-2.3-2.3l0,0V9.9c0-1.3,1-2.3,2.3-2.3h1.7c1.3,0,2.3,1,2.3,2.3
		v1.7C94.4,12.8,93.4,13.8,92.1,13.8L92.1,13.8z"/>
	
		<linearGradient id="Path_1274_1_" gradientUnits="userSpaceOnUse" x1="35.5575" y1="141.3923" x2="35.8935" y2="139.8294" gradientTransform="matrix(5.289 0 0 -5.249 -114.534 744.4185)">
		<stop  offset="0" style="stop-color:#FCB654"/>
		<stop  offset="1" style="stop-color:#F89621"/>
	</linearGradient>
	<path id="Path_1274" class="st7" d="M75.2,8.8H73c-1.6,0-2.9-1.3-2.9-2.9V3.7c0-1.6,1.3-2.9,2.9-2.9h2.2c1.6,0,2.9,1.3,2.9,2.9v2.2
		C78.1,7.5,76.8,8.8,75.2,8.8z"/>
	
		<linearGradient id="Path_1275_1_" gradientUnits="userSpaceOnUse" x1="69.2756" y1="73.4264" x2="69.6101" y2="71.8786" gradientTransform="matrix(2.604 0 0 -2.604 -118.0868 210.2196)">
		<stop  offset="0" style="stop-color:#FCB654"/>
		<stop  offset="1" style="stop-color:#F89621"/>
	</linearGradient>
	<path id="Path_1275" class="st8" d="M63.3,23h-1.1c-0.8,0-1.4-0.6-1.4-1.4v-1.1c0-0.8,0.6-1.4,1.4-1.4h1.1c0.8,0,1.4,0.6,1.4,1.4
		v1.1C64.7,22.3,64.1,23,63.3,23z"/>
	
		<linearGradient id="Path_1276_1_" gradientUnits="userSpaceOnUse" x1="71.8221" y1="73.0137" x2="72.1566" y2="71.4417" gradientTransform="matrix(2.604 0 0 -2.5652 -105.3389 194.4015)">
		<stop  offset="0" style="stop-color:#FCB654"/>
		<stop  offset="1" style="stop-color:#F89621"/>
	</linearGradient>
	<path id="Path_1276" class="st9" d="M82.7,11.1h-1.1c-0.8,0-1.4-0.6-1.4-1.4v-1c0-0.8,0.6-1.4,1.4-1.4h1.1c0.8,0,1.4,0.6,1.4,1.4
		v1.1C84.1,10.5,83.4,11.1,82.7,11.1C82.7,11.1,82.7,11.1,82.7,11.1z"/>
	
		<linearGradient id="Path_1277_1_" gradientUnits="userSpaceOnUse" x1="60.1535" y1="92.0687" x2="60.4941" y2="90.4905" gradientTransform="matrix(3.039 0 0 -3.039 -115.1093 302.6613)">
		<stop  offset="0" style="stop-color:#FCB654"/>
		<stop  offset="1" style="stop-color:#F89621"/>
	</linearGradient>
	<path id="Path_1277" class="st10" d="M68.9,27.6h-1.3c-0.9,0-1.7-0.7-1.7-1.7c0,0,0,0,0,0v-1.3c0-0.9,0.7-1.7,1.7-1.7c0,0,0,0,0,0
		h1.3c0.9,0,1.7,0.7,1.7,1.7c0,0,0,0,0,0v1.3C70.5,26.9,69.8,27.6,68.9,27.6z"/>
	
		<linearGradient id="Path_1278_1_" gradientUnits="userSpaceOnUse" x1="62.0224" y1="92.8806" x2="62.3629" y2="91.3025" gradientTransform="matrix(3.0393 0 0 -3.0393 -104.1765 297.9893)">
		<stop  offset="0" style="stop-color:#FCB654"/>
		<stop  offset="1" style="stop-color:#F89621"/>
	</linearGradient>
	<path id="Path_1278" class="st11" d="M85.5,20.4h-1.3c-0.9,0-1.7-0.7-1.7-1.7c0,0,0,0,0,0v-1.3c0-0.9,0.7-1.7,1.7-1.7c0,0,0,0,0,0
		h1.3c0.9,0,1.7,0.7,1.7,1.7c0,0,0,0,0,0v1.3C87.2,19.6,86.5,20.4,85.5,20.4C85.5,20.4,85.5,20.4,85.5,20.4z"/>
	<g id="Group_646" transform="translate(7.747 36.23)" class="st12">
		<g id="Group_645" transform="translate(12.708)" class="st13">
			<path id="Path_1279" d="M11.9,20c-0.1-0.1-0.3-0.1-0.4-0.1h5.9c0.1,0,0.3,0.1,0.4,0.1c0.1,0.1,0.2,0.2,0.3,0.3
				c0,0.1,0,0.2,0.1,0.2c0,0.1,0.1,0.2,0.1,0.3c0,1.1,0,2.8,0.1,4.9c0,2,0.1,4.1,0.1,6.2s0.1,3.7,0.1,4.9c0.6-1.3,1.4-2.9,2.4-5.2
				c1-2.2,2-4.4,3.1-6.6c1-2.2,1.9-3.9,2.4-5.2h5.8c0,1.3,0,3,0.1,5.2c0,2.2,0.1,4.4,0.1,6.6s0.1,4,0.1,5.2c0.5-1.1,1.2-2.7,2-4.7
				c0.9-2,1.7-4,2.6-6c0.9-2,1.6-3.5,2-4.7c0.2-0.3,0.3-0.5,0.3-0.8c0-0.1,0-0.2-0.1-0.2c-0.1-0.1-0.1-0.2-0.1-0.3
				c-0.1-0.1-0.1-0.1-0.2-0.1l-0.4-0.2H44c0.2,0,0.4,0,0.5,0.2c0.1,0.1,0.2,0.2,0.2,0.3c0.1,0.2,0.1,0.4,0.2,0.6l-0.2,0.5
				c-0.5,1-1,2.2-1.7,3.7c-0.7,1.5-2,4.3-3.8,8.2s-3.1,6.7-3.8,8.2s-1.3,2.8-1.7,3.8h-5.6c-0.3,0-0.6-0.1-0.8-0.3
				c-0.1-0.1-0.2-0.3-0.3-0.4c0-0.1-0.1-0.3-0.2-0.4v-4.5c0-1.9,0-3.8-0.1-5.8v-4.5c-0.3,0.7-0.7,1.5-1.1,2.5
				c-0.5,1-1.3,2.6-2.3,4.9c-1.1,2.3-1.9,4.1-2.6,5.5c-0.7,1.4-1.1,2.4-1.4,3.1h-1.7c-0.7,0-1.4,0-2.2,0.1h-1.7
				c-0.2,0-0.3-0.1-0.4-0.2c-0.1-0.1-0.2-0.1-0.3-0.2c-0.1-0.1-0.2-0.4-0.3-0.8V37c0-3.1,0-6.1-0.1-9.1v-7.1
				c-0.1-0.3-0.2-0.5-0.3-0.7C12.2,20.1,12.1,20.1,11.9,20z"/>
		</g>
		<path id="Path_1280" d="M22.7,29.3h-6.4c-0.1,0.5-0.2,1-0.3,1.4c-0.1,0.5-0.2,1-0.3,1.4c-0.1,0.2-0.1,0.3-0.1,0.5
			c0,0.2,0.2,0.5,0.5,0.8c0.1,0,0.2,0,0.4,0.1c0.2,0,0.4,0.1,0.5,0.1h3.6c-0.1,0.4-0.2,1-0.4,1.7c-0.2,0.7-0.4,1.4-0.5,2.2
			c-0.2,0.7-0.3,1.3-0.4,1.7c-0.1,0.3-0.2,0.5-0.2,0.6l-0.2,0.4c-0.1,0.2-0.3,0.3-0.5,0.4c-0.2,0.2-0.4,0.3-0.7,0.3
			c-0.4,0.1-0.8,0.1-1.3,0.1H13c-0.4-0.1-0.8-0.2-1.1-0.4c-0.4-0.2-0.7-0.5-0.7-0.7c0.1-1.7,0.2-3.3,0.5-4.9
			c0.3-2.1,0.8-4.2,1.4-6.2c0.4-1.5,1-2.9,1.9-4.2c0.2-0.3,0.8-0.4,1.6-0.4h5.6L22,19.9h-6.7c-0.8,0-1.7,0.1-2.5,0.2
			c-0.6,0.1-1.2,0.2-1.8,0.5c-1,0.9-1.8,2.1-2.2,3.4c-0.8,2.1-1.5,4.2-2,6.4c-0.6,2.5-1.1,4.8-1.4,7c-0.3,1.7-0.5,3.4-0.5,5.2
			c0,0.8,0.1,1.3,0.2,1.4c0.3,0.4,0.7,0.7,1.1,1c0.3,0.2,0.7,0.4,1.1,0.4c0.8,0.1,1.5,0.2,2.3,0.1h11.5c0.5,0,1-0.2,1.4-0.5
			c0.4-0.1,0.6-0.4,0.7-1.1c0.1-0.5,0.2-1.1,0.4-1.8L22.7,29.3z"/>
		<path id="Path_1281" d="M61.1,19.8l-6,13.3c0.9,0.5,1.8,0.9,2.8,1.2c1.1,0.3,2.2,0.8,3.3,1.3c0.6,0.3,1,1,1,1.7
			c-0.2,1.9-0.8,3-1.9,3.4c-1.5,0.4-3.1,0.6-4.7,0.5h-3.2c-0.4,0-0.8-0.1-1.1-0.3c-0.3-0.2-0.4-0.6-0.4-1c0-0.2,0.1-0.4,0.1-0.5
			h-0.4c-0.2,0.8-0.4,1.6-0.7,2.4c-0.2,0.8-0.4,1.6-0.7,2.4c0,0.3,0.1,0.6,0.3,0.9c0.2,0.3,0.5,0.5,0.9,0.4h10.9
			c0.8-0.1,1.6-0.2,2.4-0.5c0.8-0.3,1.5-0.8,2.2-1.3c0.6-0.6,1-1.3,1.3-2.1c0.4-1,0.7-2,0.9-3.1c0.2-1,0.3-2.1,0.3-3.1
			c0.1-1-0.1-2-0.6-2.9c-0.4-0.5-0.9-1-1.4-1.3c-0.5-0.3-1.1-0.6-1.7-0.8c-0.6-0.2-1.3-0.4-2-0.5c-0.8-0.2-1.3-0.3-1.6-0.4
			c-1.2-0.4-1.7-1.1-1.7-2c0.1-0.5,0.2-1.1,0.3-1.6c0.1-0.5,0.3-0.9,0.7-1.3c0.4-0.2,0.8-0.4,1.2-0.4c0.5,0,1-0.1,1.4-0.1h4.8
			c0.3,0,0.7,0,1-0.2c0.3-0.1,0.4-0.4,0.4-0.7l0.4-1.6l0.4-1.6h-8.7L61.1,19.8z"/>
	</g>
	<g id="Group_647" transform="translate(6.958 35.164)">
		
			<linearGradient id="Path_1282_1_" gradientUnits="userSpaceOnUse" x1="2.3325" y1="149.4877" x2="2.3416" y2="149.1122" gradientTransform="matrix(21.983 0 0 -17.0525 -10.2881 2582.2334)">
			<stop  offset="0" style="stop-color:#FFFFFF"/>
			<stop  offset="1" style="stop-color:#EAEAEA"/>
		</linearGradient>
		<path id="Path_1282" class="st14" d="M55.4,24.5c0.7-1.5,1.3-2.8,1.7-3.7l0.2-0.5c0-0.2-0.1-0.4-0.2-0.6c0-0.1-0.1-0.2-0.2-0.3
			c-0.1-0.1-0.3-0.2-0.5-0.2h-5.5l0.4,0.2c0.1,0.1,0.2,0.1,0.2,0.1s0.1,0.1,0.1,0.3c0,0.1,0.1,0.2,0.1,0.2c-0.1,0.3-0.2,0.6-0.3,0.8
			c-0.5,1.1-1.2,2.7-2,4.7c-0.9,2-1.7,4-2.6,6c-0.9,2-1.6,3.5-2,4.7c0-1.3,0-3-0.1-5.2c0-2.2-0.1-4.4-0.1-6.6c0-2.2-0.1-4-0.1-5.2
			h-5.8c-0.6,1.3-1.4,2.9-2.4,5.2c-1,2.2-2,4.4-3.1,6.6s-1.9,3.9-2.4,5.2c0-1.1,0-2.8-0.1-4.9c0-2-0.1-4.1-0.1-6.2s-0.1-3.7-0.1-4.9
			c0-0.1,0-0.2-0.1-0.3c0-0.1-0.1-0.2-0.1-0.2c-0.1-0.1-0.2-0.2-0.3-0.3c-0.1-0.1-0.2-0.1-0.4-0.1h-5.9c0.1,0,0.3,0.1,0.4,0.1
			c0.1,0.1,0.2,0.2,0.3,0.3c0.2,0.2,0.3,0.5,0.3,0.7v7.1c0,3.1,0,6.1,0.1,9.1v7.1c0,0.3,0.1,0.6,0.3,0.8c0.1,0,0.1,0.1,0.3,0.2
			c0.1,0.1,0.3,0.2,0.4,0.2h1.7c0.7,0,1.4,0,2.2-0.1h1.7c0.3-0.7,0.8-1.7,1.4-3.1c0.7-1.4,1.5-3.2,2.6-5.5s1.9-3.9,2.3-4.9
			c0.5-1,0.8-1.8,1.1-2.5v4.5c0,1.9,0,3.8,0.1,5.8v4.5c0,0.1,0.1,0.3,0.2,0.4c0.1,0.2,0.2,0.3,0.3,0.4c0.2,0.2,0.5,0.3,0.8,0.3h5.6
			c0.5-1,1-2.3,1.7-3.8c0.7-1.5,2-4.3,3.8-8.2C53.4,28.8,54.6,26,55.4,24.5z"/>
		
			<linearGradient id="Path_1283_1_" gradientUnits="userSpaceOnUse" x1="7.7282" y1="149.2339" x2="7.7464" y2="148.8553" gradientTransform="matrix(12.274 0 0 -16.901 -81.3212 2556.291)">
			<stop  offset="0" style="stop-color:#FFFFFF"/>
			<stop  offset="1" style="stop-color:#EAEAEA"/>
		</linearGradient>
		<path id="Path_1283" class="st15" d="M15.9,28.6c-0.1,0.5-0.2,1-0.3,1.4s-0.2,1-0.3,1.4c-0.1,0.2-0.1,0.3-0.1,0.5
			c0,0.2,0.2,0.5,0.5,0.8c0.1,0,0.2,0,0.4,0.1c0.2,0,0.4,0.1,0.5,0.1h3.6c-0.1,0.4-0.2,1-0.4,1.7c-0.2,0.7-0.4,1.4-0.5,2.2
			c-0.2,0.7-0.3,1.3-0.4,1.7c-0.1,0.3-0.2,0.5-0.2,0.6l-0.2,0.4c-0.1,0.2-0.3,0.3-0.5,0.4c-0.2,0.2-0.4,0.3-0.7,0.3
			c-0.4,0.1-0.8,0.1-1.3,0.1h-3.5c-0.4-0.1-0.8-0.2-1.1-0.4c-0.4-0.2-0.7-0.5-0.7-0.7c0.1-1.7,0.2-3.3,0.5-4.9
			c0.3-2.1,0.8-4.2,1.4-6.2c0.4-1.5,1-2.9,1.9-4.2c0.2-0.3,0.8-0.4,1.6-0.4h5.6l-0.2-4.2h-6.7c-0.8,0-1.7,0.1-2.5,0.2
			c-0.6,0.1-1.2,0.2-1.8,0.5c-1,0.9-1.8,2.1-2.2,3.4c-0.8,2.1-1.5,4.2-2,6.4c-0.6,2.5-1.1,4.8-1.4,7c-0.3,1.7-0.5,3.4-0.5,5.2
			c0,0.8,0.1,1.3,0.2,1.4c0.3,0.4,0.7,0.7,1.1,1c0.3,0.2,0.7,0.4,1.1,0.4c0.8,0.1,1.5,0.2,2.3,0.1h11.5c0.5,0,1-0.2,1.4-0.5
			c0.4-0.1,0.6-0.4,0.7-1.1c0.1-0.5,0.2-1.1,0.4-1.8l-0.8-12.8H15.9z"/>
		
			<linearGradient id="Path_1284_1_" gradientUnits="userSpaceOnUse" x1="7.655" y1="149.3185" x2="7.6717" y2="148.9399" gradientTransform="matrix(13.543 0 0 -16.8952 -44.5744 2555.2524)">
			<stop  offset="0" style="stop-color:#FFFFFF"/>
			<stop  offset="1" style="stop-color:#EAEAEA"/>
		</linearGradient>
		<path id="Path_1284" class="st16" d="M60.7,19.1l-6,13.3c0.9,0.5,1.8,0.9,2.8,1.2c1.1,0.3,2.2,0.8,3.3,1.3c0.6,0.3,1,1,1,1.7
			c-0.2,1.9-0.8,3-1.9,3.4c-1.5,0.4-3.1,0.6-4.7,0.5h-3.3c-0.4,0-0.8-0.1-1.1-0.3c-0.3-0.2-0.4-0.6-0.4-1c0-0.2,0.1-0.4,0.1-0.5
			h-0.4c-0.2,0.8-0.4,1.6-0.7,2.4s-0.4,1.6-0.7,2.4c0,0.3,0.1,0.6,0.3,0.9c0.2,0.3,0.5,0.5,0.9,0.4h10.9c0.8-0.1,1.6-0.2,2.4-0.5
			c0.8-0.3,1.5-0.8,2.2-1.3c0.6-0.6,1-1.3,1.3-2.1c0.4-1,0.7-2,0.9-3.1c0.2-1,0.3-2.1,0.3-3.1c0.1-1-0.1-2-0.6-2.9
			c-0.4-0.5-0.9-1-1.4-1.3c-0.5-0.3-1.1-0.6-1.7-0.8c-0.6-0.2-1.3-0.4-2-0.5c-0.8-0.2-1.3-0.3-1.6-0.4c-1.2-0.4-1.7-1.1-1.7-2
			c0.1-0.5,0.2-1.1,0.3-1.6c0.1-0.5,0.3-0.9,0.7-1.3c0.4-0.2,0.8-0.4,1.2-0.4c0.5,0,1-0.1,1.4-0.1h4.8c0.3,0,0.7,0,1-0.2
			c0.3-0.1,0.4-0.4,0.4-0.7l0.4-1.6l0.4-1.6h-8.7V19.1z"/>
	</g>
</g>
</svg>
