<svg xmlns="http://www.w3.org/2000/svg" width="10.625" height="21.034" viewBox="0 0 10.625 21.034"><defs><style>.a{fill:#828282;}</style></defs><path class="a" d="M77.042,11.2h2.306v9.492a.339.339,0,0,0,.339.339H83.6a.339.339,0,0,0,.339-.339V11.247h2.651a.339.339,0,0,0,.337-.3l.4-3.494a.339.339,0,0,0-.337-.378H83.936V4.884c0-.66.356-1,1.057-1h2a.339.339,0,0,0,.339-.339V.342A.339.339,0,0,0,86.989,0H84.238c-.019,0-.062,0-.126,0a5.272,5.272,0,0,0-3.447,1.3,3.615,3.615,0,0,0-1.2,3.213V7.074h-2.42a.339.339,0,0,0-.339.339v3.45A.339.339,0,0,0,77.042,11.2Z" transform="translate(-76.703)"/></svg>