<svg xmlns="http://www.w3.org/2000/svg" width="18.453" height="18.456" viewBox="0 0 18.453 18.456"><defs><style>.a{fill:#828282;}</style></defs><path class="a" d="M18.854,5.426a6.744,6.744,0,0,0-.429-2.239,4.728,4.728,0,0,0-2.7-2.7A6.761,6.761,0,0,0,13.486.058C12.5.011,12.184,0,9.678,0s-2.819.011-3.8.054A6.746,6.746,0,0,0,3.636.483,4.5,4.5,0,0,0,2,1.55,4.544,4.544,0,0,0,.935,3.184,6.762,6.762,0,0,0,.506,5.423C.459,6.411.449,6.724.449,9.23s.011,2.819.054,3.8a6.744,6.744,0,0,0,.429,2.239,4.727,4.727,0,0,0,2.7,2.7,6.762,6.762,0,0,0,2.239.429c.984.043,1.3.054,3.8.054s2.819-.011,3.8-.054a6.742,6.742,0,0,0,2.239-.429,4.721,4.721,0,0,0,2.7-2.7,6.767,6.767,0,0,0,.429-2.239c.043-.984.054-1.3.054-3.8s0-2.819-.047-3.8Zm-1.662,7.535a5.059,5.059,0,0,1-.317,1.713,3.062,3.062,0,0,1-1.752,1.752,5.077,5.077,0,0,1-1.713.317c-.973.043-1.265.054-3.728.054s-2.758-.011-3.728-.054a5.056,5.056,0,0,1-1.713-.317,2.84,2.84,0,0,1-1.06-.689,2.869,2.869,0,0,1-.689-1.06,5.077,5.077,0,0,1-.317-1.713c-.043-.973-.054-1.266-.054-3.728s.011-2.758.054-3.728A5.056,5.056,0,0,1,2.493,3.8a2.805,2.805,0,0,1,.692-1.06,2.865,2.865,0,0,1,1.06-.689,5.08,5.08,0,0,1,1.713-.317c.973-.043,1.266-.054,3.728-.054s2.758.011,3.728.054a5.059,5.059,0,0,1,1.713.317,2.838,2.838,0,0,1,1.06.689,2.869,2.869,0,0,1,.689,1.06,5.079,5.079,0,0,1,.317,1.713c.043.973.054,1.265.054,3.728s-.011,2.751-.054,3.724Zm0,0" transform="translate(-0.449 0)"/><path class="a" d="M129.69,124.5a4.741,4.741,0,1,0,4.741,4.741A4.742,4.742,0,0,0,129.69,124.5Zm0,7.817a3.075,3.075,0,1,1,3.075-3.075A3.076,3.076,0,0,1,129.69,132.317Zm0,0" transform="translate(-120.46 -120.011)"/><path class="a" d="M364.664,89.709a1.107,1.107,0,1,1-1.107-1.107A1.107,1.107,0,0,1,364.664,89.709Zm0,0" transform="translate(-349.398 -85.407)"/></svg>