<svg xmlns="http://www.w3.org/2000/svg" width="14.515" height="18.467" viewBox="0 0 14.515 18.467"><defs><style>.a{fill:#828282;}</style></defs><path class="a" d="M45.813,1.892A7.082,7.082,0,0,0,40.86,0a7.786,7.786,0,0,0-5.743,2.214,6.543,6.543,0,0,0-1.936,4.535c0,2.056.86,3.633,2.3,4.22a.762.762,0,0,0,.289.06.643.643,0,0,0,.628-.518c.049-.183.161-.634.21-.83a.779.779,0,0,0-.208-.842,2.684,2.684,0,0,1-.61-1.834,4.616,4.616,0,0,1,4.786-4.647c2.467,0,4,1.4,4,3.659a7.6,7.6,0,0,1-.864,3.714A2.555,2.555,0,0,1,41.6,11.21a1.4,1.4,0,0,1-1.114-.509,1.281,1.281,0,0,1-.224-1.113c.11-.465.26-.951.4-1.42a8.789,8.789,0,0,0,.515-2.313,1.679,1.679,0,0,0-1.69-1.847c-1.285,0-2.291,1.3-2.291,2.97a4.417,4.417,0,0,0,.315,1.663c-.162.686-1.124,4.762-1.306,5.531-.105.449-.741,3.993.311,4.276,1.182.318,2.238-3.134,2.346-3.524.087-.317.392-1.517.579-2.254a3.573,3.573,0,0,0,2.383.921,5.315,5.315,0,0,0,4.267-2.135,8.57,8.57,0,0,0,1.6-5.24A6.043,6.043,0,0,0,45.813,1.892Z" transform="translate(-33.181)"/></svg>