<svg xmlns="http://www.w3.org/2000/svg" width="22.624" height="18.382" viewBox="0 0 22.624 18.382"><defs><style>.a{fill:#828282;}</style></defs><g transform="translate(0 0)"><path class="a" d="M22.624,50.176a9.67,9.67,0,0,1-2.672.732,4.612,4.612,0,0,0,2.04-2.564,9.269,9.269,0,0,1-2.941,1.123,4.638,4.638,0,0,0-8.023,3.172,4.775,4.775,0,0,0,.107,1.058,13.128,13.128,0,0,1-9.56-4.851A4.639,4.639,0,0,0,3,55.044a4.58,4.58,0,0,1-2.1-.571v.051a4.659,4.659,0,0,0,3.716,4.557,4.629,4.629,0,0,1-1.216.153,4.1,4.1,0,0,1-.878-.079,4.682,4.682,0,0,0,4.334,3.231A9.319,9.319,0,0,1,1.11,64.364,8.689,8.689,0,0,1,0,64.3a13.057,13.057,0,0,0,7.115,2.081,13.11,13.11,0,0,0,13.2-13.2c0-.205-.007-.4-.017-.6A9.253,9.253,0,0,0,22.624,50.176Z" transform="translate(0 -48)"/></g></svg>