<?xml version="1.0" encoding="utf-8"?>
<!-- Generator: Adobe Illustrator 24.0.0, SVG Export Plug-In . SVG Version: 6.00 Build 0)  -->
<svg version="1.1" id="Layer_1" xmlns="http://www.w3.org/2000/svg" xmlns:xlink="http://www.w3.org/1999/xlink" x="0px" y="0px"
	 viewBox="0 0 35 34.3" style="enable-background:new 0 0 35 34.3;" xml:space="preserve">
<style type="text/css">
	.st0{fill:#FFFFFF;}
</style>
<g id="Group_18" transform="translate(0.036)">
	<path id="Path_16" class="st0" d="M17.2,34.3c-0.9-0.5-1.8-0.9-2.7-1.5c-3.8-2.4-6.9-5.7-8.9-9.7c-1.8-3.5-3-7.3-3.5-11.2
		C1.9,10.6,1.9,9.3,1.8,8c0-0.9,0.4-1.3,1.2-1.2C5.7,7,8.5,6.5,11,5.3c2.2-1.1,4.2-2.7,5.7-4.6c0.2-0.2,0.4-0.4,0.6-0.5h0.5
		c0.3,0.2,0.5,0.4,0.7,0.7c2.6,3.3,6.4,5.5,10.6,5.9c1,0.1,1.9,0.1,2.9,0.1c0.8,0,1.2,0.4,1.2,1.1c-0.1,3.4-0.7,6.8-1.7,10.1
		c-1.3,4.1-3.4,7.9-6.4,11c-2,2.1-4.4,3.8-7.1,5.1c-0.1,0-0.2,0.1-0.2,0.1C17.6,34.3,17.4,34.3,17.2,34.3z M3.8,8.9
		c0,0.1,0,0.1,0,0.1c0,0.6,0.1,1.1,0.1,1.7c0.4,3.6,1.4,7.2,2.9,10.5C9,25.8,12.6,29.7,17.2,32c0.2,0.1,0.4,0.1,0.6,0
		c4.6-2.3,8.2-6.2,10.3-10.8c1.5-3.3,2.5-6.7,2.9-10.3c0.1-0.7,0.1-1.3,0.2-2C26,8.9,21,6.7,17.5,2.8C14.1,6.7,9.1,8.9,3.8,8.9z"/>
	<path id="Path_17" class="st0" d="M11.8,23.2c0.1-0.8,0.3-1.7,0.4-2.6c0.1-0.6,0.2-1.2,0.3-1.8c0.1-0.2,0-0.5-0.2-0.6c-1-1-2-2-3-3
		C9,15,8.8,14.6,9,14.1c0.2-0.4,0.6-0.7,1-0.7c1.4-0.2,2.9-0.4,4.3-0.6c0.2,0,0.3-0.1,0.4-0.3c0.7-1.3,1.3-2.6,2-4
		c0.2-0.5,0.8-0.8,1.3-0.6C17.9,8,18,8.1,18,8.1c0.2,0.1,0.3,0.3,0.4,0.5c0.6,1.3,1.3,2.6,1.9,3.9c0.1,0.2,0.3,0.3,0.5,0.3
		c1.4,0.2,2.9,0.4,4.3,0.6c0.6,0,1,0.5,0.9,1.1c0,0.3-0.2,0.5-0.4,0.7c-1,1-2.1,2-3.1,3c-0.1,0.1-0.2,0.3-0.2,0.5
		c0.3,1.4,0.5,2.8,0.7,4.3c0.1,0.4,0,0.9-0.4,1.1c-0.4,0.2-0.8,0.3-1.2,0c-1.3-0.7-2.5-1.3-3.8-2c-0.2-0.1-0.4-0.1-0.6,0
		c-1.3,0.7-2.6,1.4-3.9,2c-0.5,0.3-1.1,0.1-1.4-0.4C11.8,23.7,11.8,23.5,11.8,23.2z M20.8,21.5c-0.2-1.1-0.3-2.1-0.5-3.1
		c-0.1-0.4,0-0.9,0.4-1.1c0.7-0.6,1.3-1.3,2-1.9c0.1-0.1,0.2-0.1,0.3-0.2c0,0-0.1-0.1-0.1-0.1c-1-0.2-2-0.3-3-0.4
		c-0.4,0-0.8-0.3-1-0.7c-0.4-0.8-0.8-1.7-1.2-2.5c0-0.1-0.1-0.1-0.2-0.2c-0.5,1-0.9,1.9-1.4,2.8c-0.2,0.4-0.5,0.6-0.9,0.7
		c-0.3,0-0.6,0.1-0.9,0.1l-2.2,0.3c0,0,0,0.1-0.1,0.1c0.1,0.1,0.2,0.1,0.3,0.2c0.7,0.6,1.3,1.3,2,1.9c0.3,0.3,0.4,0.7,0.3,1
		c-0.1,0.4-0.2,0.9-0.2,1.3c-0.1,0.6-0.2,1.2-0.3,1.8c0.2-0.1,0.3-0.2,0.4-0.2c0.8-0.4,1.5-0.8,2.3-1.2c0.4-0.3,0.9-0.2,1.3,0
		C19,20.6,19.9,21,20.8,21.5z"/>
</g>
</svg>
