<svg viewBox="0 0 99.857 84.432" ><g transform="translate(-10 -48)"><path d="M336.218,191.1h17.049a1.218,1.218,0,0,0,1.218-1.218v-4.668A1.218,1.218,0,0,0,353.267,184H336.218A1.218,1.218,0,0,0,335,185.218v4.668A1.218,1.218,0,0,0,336.218,191.1Zm7.1-4.668h8.727v2.233h-8.727Zm-5.886,0h3.45v2.233h-3.45Z" transform="translate(-259.038 -108.397)"/><path d="M336.218,241.1h23.138a1.218,1.218,0,0,0,1.218-1.218v-4.668A1.218,1.218,0,0,0,359.355,234H336.218A1.218,1.218,0,0,0,335,235.218v4.668A1.218,1.218,0,0,0,336.218,241.1Zm7.1-4.668h14.816v2.233H343.321Zm-5.886,0h3.45v2.233h-3.45Z" transform="translate(-259.038 -148.249)"/><path d="M336.218,291.1h17.049a1.218,1.218,0,0,0,1.218-1.218v-4.668A1.218,1.218,0,0,0,353.267,284H336.218A1.218,1.218,0,0,0,335,285.218v4.668A1.218,1.218,0,0,0,336.218,291.1Zm7.1-4.668h8.727v2.233h-8.727Zm-5.886,0h3.45v2.233h-3.45Z" transform="translate(-259.038 -188.101)"/><path d="M336.218,341.1h21.108a1.218,1.218,0,0,0,1.218-1.218v-4.668A1.218,1.218,0,0,0,357.326,334H336.218A1.218,1.218,0,0,0,335,335.218v4.668A1.218,1.218,0,0,0,336.218,341.1Zm7.1-4.668h12.787v2.233H343.321Zm-5.886,0h3.45v2.233h-3.45Z" transform="translate(-259.038 -227.953)"/><path d="M84.651,208.32h37.981a1.147,1.147,0,0,0,1.213-1.251l-2.984-35.325a1.212,1.212,0,0,0-1.179-1.115l-8.734-.059V167.6a8.568,8.568,0,0,0-8.568-8.6h0a8.683,8.683,0,0,0-8.679,8.609v2.959H87.634a1.2,1.2,0,0,0-1.214,1.1L83.438,207.1a1.106,1.106,0,0,0,.317.875A1.173,1.173,0,0,0,84.651,208.32Zm34.01-34.66,2.6,30.794-2.6-2.1Zm.525,32.224h-3.639l1.888-1.415Zm-2.961-3.4-2.769,2.076,2.769-28.2ZM96.132,167.609a6.246,6.246,0,0,1,6.251-6.174h0a6.133,6.133,0,0,1,6.127,6.174v2.959H96.132ZM88.754,173H93.7v3.906a1.218,1.218,0,1,0,2.436,0V173h12.381v3.906a1.218,1.218,0,1,0,2.436,0V173h3.083l-2.46,24.964H86.645ZM86.44,200.4h24.892l-.542,5.48H85.976Z" transform="translate(-58.529 -88.471)"/><path d="M100.521,48H19.336A9.336,9.336,0,0,0,10,57.336V123.1a9.336,9.336,0,0,0,9.336,9.336h81.185a9.336,9.336,0,0,0,9.336-9.336V57.336A9.336,9.336,0,0,0,100.521,48ZM12.436,57.373a6.941,6.941,0,0,1,6.9-6.938H42.068v6.671A4.266,4.266,0,0,1,37.787,61.4H12.436Zm94.986,65.686a6.941,6.941,0,0,1-6.9,6.938H19.336a6.941,6.941,0,0,1-6.9-6.938V63.831h94.986Zm0-61.663H42.979A6.6,6.6,0,0,0,44.5,57.106V50.436h56.017a6.941,6.941,0,0,1,6.9,6.938Z" transform="translate(0 0)"/><path d="M55.843,78.979A1.661,1.661,0,1,0,57.5,80.64,1.661,1.661,0,0,0,55.843,78.979Z" transform="translate(-35.215 -24.691)"/><path d="M88.57,78.979A1.661,1.661,0,1,0,90.23,80.64a1.661,1.661,0,0,0-1.661-1.661Z" transform="translate(-61.299 -24.691)"/><path d="M121.3,78.979a1.661,1.661,0,1,0,1.66,1.661A1.661,1.661,0,0,0,121.3,78.979Z" transform="translate(-87.384 -24.691)"/><path d="M39.218,145.845a1.218,1.218,0,0,0,1.218-1.218v-.872a1.218,1.218,0,0,0-2.436,0v.872A1.218,1.218,0,0,0,39.218,145.845Z" transform="translate(-22.317 -75.35)"/><path d="M39.218,189.753a1.218,1.218,0,0,0,1.218-1.218V169.051a1.218,1.218,0,1,0-2.436,0v19.484A1.218,1.218,0,0,0,39.218,189.753Z" transform="translate(-22.317 -95.511)"/></g></svg>
