<?xml version="1.0" encoding="utf-8"?>
<!-- Generator: Adobe Illustrator 24.0.0, SVG Export Plug-In . SVG Version: 6.00 Build 0)  -->
<svg version="1.1" id="Layer_1" xmlns="http://www.w3.org/2000/svg" xmlns:xlink="http://www.w3.org/1999/xlink" x="0px" y="0px"
	 viewBox="0 0 65 65" style="enable-background:new 0 0 65 65;" xml:space="preserve">
<style type="text/css">
	.st0{fill:#FFFFFF;}
	.st1{fill:#F8961D;}
</style>
<circle id="Ellipse_87" class="st0" cx="34.2" cy="32.9" r="25.5"/>
<g id="Group_504">
	<path id="Path_1106" class="st1" d="M30.7,0.4h4c0.2,0,0.3,0.1,0.5,0.1c4.7,0.4,9.4,1.8,13.5,4.2c11.2,6.5,17.5,19.1,15.8,32
		c-0.9,7.4-4.5,14.2-10.1,19.2c-6.9,6.6-16.5,9.6-26,8.2c-6.2-0.8-12-3.4-16.7-7.6C6.1,51.8,2.4,45.2,1.2,38
		c-0.2-1.2-0.3-2.4-0.5-3.6v-4c0.1-0.4,0.1-0.8,0.1-1.2C1.5,22.4,4.3,16.1,8.9,11c4.8-5.4,11.2-9,18.4-10.1
		C28.4,0.7,29.5,0.6,30.7,0.4z M13.5,23.6v1.1c0,5.8,0.1,11.5,0,17.2c-0.1,2,1.4,3.7,3.4,3.9c0.2,0,0.3,0,0.5,0
		c10.2,0,20.4,0,30.6,0c2.5,0,3.8-1.4,3.8-3.8V24.6c0-0.3,0-0.6,0-0.9c-0.3,0.2-0.5,0.3-0.7,0.4c-5.7,3.5-11.3,7.1-17,10.6
		c-0.8,0.6-2,0.6-2.8,0c-1.7-1.1-3.4-2.1-5.1-3.2C22,28.9,17.8,26.3,13.5,23.6z M51.5,23.4c-0.3-0.2-0.4-0.3-0.5-0.3
		c-6-3.7-11.9-7.4-17.9-11.2c-0.3-0.2-0.6-0.2-0.9,0.1c-5.9,3.7-11.8,7.4-17.7,11.1c-0.2,0.1-0.3,0.2-0.6,0.4L51.5,23.4z"/>
</g>
</svg>
