<svg viewBox="0 0 100.944 87.668" ><g transform="translate(0 -33.667)"><path d="M52.714,71.681a1.479,1.479,0,0,0,0,2.957h2.031a1.479,1.479,0,0,0,0-2.957Z" transform="translate(-41.134 -30.519)"/><path d="M103.629,71.681a1.479,1.479,0,0,0,0,2.957h2.032a1.479,1.479,0,0,0,0-2.957Z" transform="translate(-82.011 -30.519)"/><path d="M156.576,74.638a1.479,1.479,0,1,0,0-2.957h-2.032a1.479,1.479,0,1,0,0,2.957Z" transform="translate(-122.888 -30.519)"/><path d="M168.834,181.566a1.479,1.479,0,0,0,2.091-2.091l-27.215-27.22a1.479,1.479,0,1,0-2.091,2.091l.474.474-3.288,7.971a1.478,1.478,0,0,0-1.941,2.22l.726.726-2.562,6.21-11.1,11.1a4.2,4.2,0,0,0,0,5.927l.2.2-1.045,1.045,0,0a1.479,1.479,0,1,0-2.091,2.091l.1.1a6.986,6.986,0,0,0,9.689,9.691l.1.1a1.479,1.479,0,0,0,2.091-2.091l0,0L134,199.052l.2.2a4.2,4.2,0,0,0,5.926,0l.2-.2,3.911,3.911a1.479,1.479,0,1,0,2.091-2.091l-3.911-3.911,4.683-4.682,3.059,3.06a.084.084,0,0,1,.02.087l-.762,2.106a3.052,3.052,0,0,0,.709,3.185L154.418,205a.974.974,0,0,1,0,1.376l-.6.6a.974.974,0,0,1-1.376,0l-1.924-1.924a1.479,1.479,0,0,0-2.091,2.091l1.924,1.924a3.935,3.935,0,0,0,5.558,0l.6-.6a3.935,3.935,0,0,0,0-5.558l-4.283-4.284a.083.083,0,0,1-.02-.087l.762-2.106a3.053,3.053,0,0,0-.709-3.185l-3.059-3.06,2.031-2.031,6.21-2.56.726.726a1.478,1.478,0,0,0,2.22-1.941l7.971-3.286Zm-34.873-.34h0l-2.584,2.584a.948.948,0,0,1-1.341,0l-1.344-1.344,3.925-3.925,1.344,1.345a.947.947,0,0,1,0,1.341Zm-9.922,17.912a4.018,4.018,0,0,1-.79-4.569l5.358,5.359A4.031,4.031,0,0,1,124.04,199.137Zm7.874-2.177-1.045,1.045-5.7-5.7,1.045-1.045Zm4.382.2-10.277-10.279a1.235,1.235,0,0,1,0-1.744l.582-.582,1.344,1.344a3.9,3.9,0,0,0,5.524,0l2.584-2.584a3.9,3.9,0,0,0,0-5.523l-1.344-1.344,1.575-1.574L148.3,186.9l-9.012,9.011,0,0,0,0-1.248,1.248A1.235,1.235,0,0,1,136.3,197.161Zm14.448-12.005-12.717-12.719L139.855,168l15.322,15.325Zm7.395-3.049-17.062-17.065,3.282-7.956L166.1,178.826Z" transform="translate(-96.267 -94.86)"/><path d="M326.4,176.017l-3.962,3.962a1.479,1.479,0,0,0,2.091,2.091l3.962-3.962a1.479,1.479,0,0,0-2.091-2.091Z" transform="translate(-258.52 -113.937)"/><path d="M285.673,147.107v-5.6a1.479,1.479,0,1,0-2.957,0v5.6a1.479,1.479,0,0,0,2.957,0Z" transform="translate(-226.977 -85.39)"/><path d="M348.694,236.672a1.478,1.478,0,0,0,1.479,1.479h5.6a1.479,1.479,0,1,0,0-2.957h-5.6A1.479,1.479,0,0,0,348.694,236.672Z" transform="translate(-279.947 -161.794)"/><path d="M58.751,169.923a1.478,1.478,0,0,0-1.479-1.479H44.623a1.479,1.479,0,0,0,0,2.957H57.272A1.479,1.479,0,0,0,58.751,169.923Z" transform="translate(-34.638 -108.205)"/><path d="M44.623,205.918a1.479,1.479,0,0,0,0,2.957h8.706a1.479,1.479,0,0,0,0-2.957Z" transform="translate(-34.638 -138.291)"/><path d="M364.566,365.523H343.58a1.479,1.479,0,1,0,0,2.957h20.987a1.479,1.479,0,1,0,0-2.957Z" transform="translate(-274.654 -266.429)"/><path d="M396.68,398.567h-13.1a1.479,1.479,0,0,0,0,2.957h13.1a1.479,1.479,0,1,0,0-2.957Z" transform="translate(-306.768 -292.958)"/><path d="M90.82,33.667H31.678a1.479,1.479,0,1,0,0,2.957H90.82a7.174,7.174,0,0,1,7.166,7.166v4.866H2.957V43.791a7.174,7.174,0,0,1,7.166-7.166H25.765a1.479,1.479,0,1,0,0-2.957H10.124A10.135,10.135,0,0,0,0,43.791v67.421a10.135,10.135,0,0,0,10.124,10.124h80.7a10.135,10.135,0,0,0,10.124-10.124v-3.665a1.479,1.479,0,0,0-2.957,0v3.665a7.174,7.174,0,0,1-7.166,7.166h-80.7a7.175,7.175,0,0,1-7.166-7.166v-59.6H97.986v50.021a1.479,1.479,0,1,0,2.957,0V43.791A10.135,10.135,0,0,0,90.82,33.667Z" transform="translate(0)"/></g></svg>

