    <svg viewBox="0 0 95.394 100.386"><g transform="translate(-12.731)"><g transform="translate(12.731 0)"><path d="M208.072,440.568h7.092a1.47,1.47,0,1,0,0-2.941h-7.092a1.47,1.47,0,0,0,0,2.941Z" transform="translate(-168.591 -351.823)"/><path d="M197.952,63.387h11.061a1.47,1.47,0,1,0,0-2.941H197.952a1.47,1.47,0,0,0,0,2.941Z" transform="translate(-160.454 -48.595)"/><circle cx="1.47" cy="1.47" r="1.47" transform="translate(31.401 11.7)"/><circle cx="1.47" cy="1.47" r="1.47" transform="translate(51.715 11.7)"/><circle cx="1.47" cy="1.47" r="1.47" transform="translate(41.558 71.858)"/><circle cx="1.47" cy="1.47" r="1.47" transform="translate(32.055 71.858)"/><circle cx="1.47" cy="1.47" r="1.47" transform="translate(50.485 71.858)"/><path d="M371.55,84.2h4.457a1.47,1.47,0,0,0,0-2.941h-2.986V76.682a1.47,1.47,0,1,0-2.941,0v6.049A1.47,1.47,0,0,0,371.55,84.2Z" transform="translate(-300.016 -60.465)"/><path d="M174.112,158.831h-9.055a10.916,10.916,0,0,0-10.74,11.059,11.118,11.118,0,0,0,6.255,10.049.773.773,0,0,1,.428.7v3.42a2.144,2.144,0,0,0,1.249,1.951,2.08,2.08,0,0,0,2.252-.332l5.233-4.567a.645.645,0,0,1,.423-.163h3.955a11.064,11.064,0,0,0,0-22.119Zm0,19.178h-3.955a3.585,3.585,0,0,0-2.357.888l-3.859,3.368v-1.625a3.726,3.726,0,0,0-2.11-3.36,8.164,8.164,0,0,1-4.573-7.391,7.973,7.973,0,0,1,7.8-8.119h9.055a8.125,8.125,0,0,1,0,16.237Z" transform="translate(-126.557 -127.69)"/><path d="M213.793,192.952h-7.977a1.47,1.47,0,0,0,0,2.941h7.977a1.47,1.47,0,1,0,0-2.941Z" transform="translate(-166.777 -155.121)"/><path d="M211.53,222.013h-5.713a1.471,1.471,0,0,0,0,2.941h5.713a1.471,1.471,0,0,0,0-2.941Z" transform="translate(-166.777 -178.484)"/><path d="M403.494,201.209a11.694,11.694,0,0,0-10.26-9.967,12.259,12.259,0,0,0-1.3-.07h0a11.621,11.621,0,0,0-8.245,3.395,11.548,11.548,0,0,0-1.875,13.974l7.831,13.5a2.65,2.65,0,0,0,4.58,0l7.831-13.5A11.512,11.512,0,0,0,403.494,201.209Zm-3.986,5.857-7.576,13.056-7.576-13.056a8.608,8.608,0,0,1,1.4-10.414,8.7,8.7,0,0,1,6.173-2.54,9.29,9.29,0,0,1,.987.053,8.723,8.723,0,0,1,7.659,7.429,8.6,8.6,0,0,1-1.071,5.472Z" transform="translate(-308.205 -153.689)"/><path d="M419.276,223.236a5,5,0,1,0,5,5A5,5,0,0,0,419.276,223.236Zm0,7.054a2.057,2.057,0,1,1,2.057-2.057A2.059,2.059,0,0,1,419.276,230.29Z" transform="translate(-335.548 -179.467)"/><path d="M351.334,409.388a2.059,2.059,0,0,0-3.114,1.768v9.558a2.06,2.06,0,0,0,3.114,1.768l8-4.779a2.059,2.059,0,0,0,0-3.535Zm-.173,9.771v-6.449l5.4,3.224Z" transform="translate(-282.442 -328.888)"/><path d="M48.345,47.539c1.081-1.1,3.919-4.028,6.022-6.2a5.776,5.776,0,0,0,0-7.963,5.432,5.432,0,0,0-7.526-.3,5.432,5.432,0,0,0-7.526.3,5.776,5.776,0,0,0,0,7.964c2.1,2.168,4.939,5.093,6.022,6.2a2.1,2.1,0,0,0,3.007,0ZM41.429,39.3a2.81,2.81,0,0,1,0-3.875,2.493,2.493,0,0,1,3.608,0l.747.772a1.47,1.47,0,0,0,2.115,0l.747-.772a2.493,2.493,0,0,1,3.608,0,2.81,2.81,0,0,1,0,3.874c-1.784,1.84-4.1,4.225-5.413,5.575C45.524,43.519,43.211,41.135,41.429,39.3Z" transform="translate(-32.823 -25.491)"/><path d="M94.461,73.709H81.553V34.348a12.385,12.385,0,1,0,0-24.165V8.822A4.324,4.324,0,0,0,77.234,4.5H40.766V2.451A2.453,2.453,0,0,0,38.315,0H15.182a2.453,2.453,0,0,0-2.451,2.451v24A2.453,2.453,0,0,0,15.182,28.9h5.113a1.47,1.47,0,1,0,0-2.941H15.672V2.941H37.825V25.958H27.288a1.47,1.47,0,0,0,0,2.941h2.677v42H17.827a2.453,2.453,0,0,0-2.451,2.451V88.335a2.453,2.453,0,0,0,2.451,2.451H29.965v2.388a4.324,4.324,0,0,0,4.319,4.319H71.025v.442a2.453,2.453,0,0,0,2.451,2.451H94.461a2.453,2.453,0,0,0,2.451-2.451v-5.98a1.47,1.47,0,0,0-2.941,0v5.49H73.966V76.65H93.971v8.312a1.47,1.47,0,1,0,2.941,0v-8.8A2.454,2.454,0,0,0,94.461,73.709ZM93.71,22.266a9.444,9.444,0,1,1-9.444-9.444A9.455,9.455,0,0,1,93.71,22.266ZM77.234,7.444a1.38,1.38,0,0,1,1.378,1.378v2.43a12.429,12.429,0,0,0-6.4,8.155H40.766V7.444ZM35.523,73.837l-7.4,6.56-7.4-6.56ZM18.317,87.845V75.635L26.509,82.9a2.433,2.433,0,0,0,3.227,0l8.193-7.262v12.21Zm52.708,6.707H34.284a1.38,1.38,0,0,1-1.378-1.378V90.786h5.512a2.453,2.453,0,0,0,2.451-2.451V81.617H71.025Zm2.731-26h4.857v5.161H73.476a2.453,2.453,0,0,0-2.451,2.451v2.516H40.869V73.347A2.453,2.453,0,0,0,38.419,70.9H32.906V68.547H66.828a1.47,1.47,0,0,0,0-2.941H32.906V28.9h5.409a2.453,2.453,0,0,0,2.451-2.451v-4.1H71.883a12.4,12.4,0,0,0,6.73,10.932V65.607H73.756a1.47,1.47,0,1,0,0,2.941Z" transform="translate(-12.731 0)"/></g></g></svg>
