<?xml version="1.0" encoding="utf-8"?>
<!-- Generator: Adobe Illustrator 24.0.0, SVG Export Plug-In . SVG Version: 6.00 Build 0)  -->
<svg version="1.1" id="Layer_1" xmlns="http://www.w3.org/2000/svg" xmlns:xlink="http://www.w3.org/1999/xlink" x="0px" y="0px"
	 viewBox="0 0 65 65" style="enable-background:new 0 0 65 65;" xml:space="preserve">
<style type="text/css">
	.st0{fill:#FFFFFF;}
	.st1{fill:#D66969;}
</style>
<g id="Group_507" transform="translate(-1809.541 -5639.541)">
	<circle id="Ellipse_88" class="st0" cx="1841.5" cy="5671.6" r="30"/>
	<g id="Group_506" transform="translate(1809.541 5639.541)">
		<path id="Path_1107" class="st1" d="M32.5,0.6c-17.7,0-32,14.3-32,32s14.3,32,32,32c17.7,0,32-14.3,32-32
			C64.4,14.9,50.1,0.6,32.5,0.6C32.5,0.6,32.5,0.6,32.5,0.6z M15.2,16.3c0.7-0.6,1.4-1,2.2-1.2c4.1-1.1,8.3-1.8,12.5-1.9
			c0.1,0,0.3,0,0.4-0.1h4.2c0.6,0.1,1.3,0.1,1.9,0.1c3.7,0.2,7.4,0.8,11,1.8c2.5,0.7,4.2,2.9,4.2,5.5v1.6H40.4v-1
			c0-0.2-0.1-0.5-0.4-0.5c-2.7-0.8-5.4-1.2-8.2-1.2c-2,0.1-4,0.4-5.9,0.9c-0.3,0.1-0.6,0.1-0.9,0.2c-0.3,0.1-0.5,0.2-0.5,0.6
			c0,0.3,0,0.6,0,0.9H13.2C13,20,13.4,17.9,15.2,16.3L15.2,16.3z M36.8,28.1c1.2,0,2.1,1,2.1,2.2H26.1c0-1.2,0.9-2.2,2.1-2.2
			C31.1,28.1,33.9,28.1,36.8,28.1z M28.3,25.8v-3.4c2.7-0.6,5.5-0.6,8.3,0v3.4L28.3,25.8z M13.2,25.7c0-0.4,0-0.8,0-1.2h11.4
			c0,0.7-0.1,1.4-0.2,2C24,28,22.7,29,21.2,29c-1.6,0-3.2,0-4.7,0C14.7,29,13.3,27.5,13.2,25.7z M45.2,51.8
			C45.1,51.8,45.1,51.8,45.2,51.8l-25.3,0.1c-0.5-0.2-1.1-0.4-1.6-0.6c-1.3-0.7-2-2-2-3.5c0-1.9,0-3.9,0-5.9c0-1.1,0.3-2.2,1-3
			c1.1-1.5,2.2-2.9,3.4-4.3c1-1.3,2.6-2,4.2-2c5.1,0,10.2,0,15.3,0c1.7,0,3.3,0.8,4.4,2.1c1,1.3,2,2.6,3,3.9c0.8,1,1.2,2.3,1.2,3.6
			c0,1.8,0,3.5,0,5.3C48.8,49.6,47.3,51.5,45.2,51.8z M49.2,28.9c-0.3,0.1-0.6,0.1-1,0.1c-1.5,0-2.9,0-4.3,0
			c-1.9,0.1-3.4-1.4-3.5-3.3c0-0.1,0-0.1,0-0.2v-1h11.3C52,26.7,51.1,28.4,49.2,28.9L49.2,28.9z"/>
		<path id="Path_1108" class="st1" d="M33.6,45.6c-0.4,0-0.7,0-1.1,0s-0.8,0-1.1,0c-0.6,0-1.1,0.5-1.2,1.1c0,0.6,0.4,1.1,1,1.2
			c0,0,0,0,0.1,0c0.8,0,1.6,0,2.3,0c0.6,0,1.1-0.5,1.1-1.1c0,0,0,0,0,0C34.7,46.1,34.2,45.6,33.6,45.6z"/>
		<path id="Path_1109" class="st1" d="M31.3,43.4c0.4,0,0.8,0,1.1,0s0.8,0,1.1,0c0.6,0,1.1-0.5,1.1-1.1c0,0,0,0,0-0.1
			c0-0.6-0.5-1.1-1.1-1.1c0,0,0,0,0,0c-0.7,0-1.5,0-2.2,0c-0.6,0-1.1,0.4-1.2,1.1c0,0,0,0,0,0C30.2,42.8,30.7,43.3,31.3,43.4
			C31.3,43.4,31.3,43.4,31.3,43.4z"/>
		<path id="Path_1110" class="st1" d="M24.5,43.4c0.4,0,0.8,0,1.1,0l0,0c0.4,0,0.8,0,1.1,0c0.6,0,1.1-0.5,1.2-1.1c0,0,0,0,0-0.1
			c0-0.6-0.5-1.1-1.1-1.1c0,0,0,0-0.1,0c-0.7,0-1.4,0-2.2,0c-0.6,0-1.1,0.5-1.2,1.1C23.4,42.8,23.9,43.3,24.5,43.4L24.5,43.4z"/>
		<path id="Path_1111" class="st1" d="M26.8,45.6c-0.7,0-1.4,0-2.2,0c-0.6,0-1.2,0.4-1.2,1.1s0.4,1.2,1.1,1.2c0,0,0.1,0,0.1,0
			c0.4,0,0.7,0,1.1,0s0.8,0,1.1,0c0.6,0,1.1-0.5,1.2-1.1c0,0,0,0,0-0.1C27.9,46.1,27.4,45.6,26.8,45.6
			C26.8,45.6,26.8,45.6,26.8,45.6z"/>
		<path id="Path_1112" class="st1" d="M31.3,38.8c0.4,0,0.8,0,1.1,0l0,0c0.4,0,0.8,0,1.2,0c0.6,0,1.1-0.5,1.1-1.2
			c0-0.6-0.5-1.1-1.1-1.1c0,0,0,0,0,0c-0.7,0-1.5,0-2.2,0c-0.6,0-1.1,0.4-1.2,1.1c0,0,0,0,0,0C30.2,38.3,30.7,38.8,31.3,38.8
			C31.3,38.8,31.3,38.8,31.3,38.8z"/>
		<path id="Path_1113" class="st1" d="M26.8,36.6c-0.4,0-0.8,0-1.1,0c-0.4,0-0.8,0-1.2,0c-0.6,0-1.1,0.5-1.1,1.1
			c0,0.6,0.4,1.1,1,1.1c0.8,0,1.6,0,2.5,0c0.6,0,1.1-0.5,1-1.1C27.9,37.1,27.4,36.6,26.8,36.6z"/>
		<path id="Path_1114" class="st1" d="M40.4,36.6c-0.4,0-0.7,0-1.1,0h-1.1c-0.6,0-1.1,0.5-1.2,1.1c0,0,0,0,0,0c0,0.6,0.4,1.1,1,1.1
			c0,0,0,0,0,0c0.8,0,1.6,0,2.4,0c0.6,0,1.1-0.5,1.1-1.1C41.5,37.1,41,36.6,40.4,36.6C40.4,36.6,40.4,36.6,40.4,36.6z"/>
		<path id="Path_1115" class="st1" d="M40.4,41.1c-0.7,0-1.5,0-2.2,0c-0.6,0-1.1,0.5-1.2,1.1c0,0.6,0.5,1.1,1.1,1.2c0,0,0,0,0.1,0
			c0.4,0,0.8,0,1.1,0l0,0c0.4,0,0.8,0,1.2,0c0.6,0,1.1-0.5,1.1-1.2C41.5,41.6,41,41.1,40.4,41.1L40.4,41.1z"/>
		<path id="Path_1116" class="st1" d="M40.4,45.6c-0.4,0-0.8,0-1.1,0s-0.8,0-1.1,0c-0.6,0-1.1,0.5-1.1,1.1c0,0.6,0.4,1.1,1,1.2
			c0,0,0,0,0,0c0.8,0,1.6,0,2.4,0c0.6,0,1.1-0.5,1.1-1.2c0,0,0,0,0,0C41.5,46.1,41,45.6,40.4,45.6z"/>
	</g>
</g>
</svg>
