<?xml version="1.0" encoding="utf-8"?>
<!-- Generator: Adobe Illustrator 24.0.0, SVG Export Plug-In . SVG Version: 6.00 Build 0)  -->
<svg version="1.1" id="Layer_1" xmlns="http://www.w3.org/2000/svg" xmlns:xlink="http://www.w3.org/1999/xlink" x="0px" y="0px"
	 viewBox="0 0 35 34.3" style="enable-background:new 0 0 35 34.3;" xml:space="preserve">
<style type="text/css">
	.st0{fill:#FFFFFF;}
</style>
<path class="st0" d="M17.5,2.5c1.9,0,3.8,0.9,5.1,2.3c2.8,3.2,2.8,8,0,11.2c-1.2,1.5-3.1,2.3-5,2.3h-0.2c-1.9,0-3.7-0.9-5-2.3
	c-2.8-3.2-2.8-8,0-11.2C13.7,3.3,15.6,2.5,17.5,2.5 M17.5,20.3c3.1,0,6,1.2,8.2,3.4c1.2,1.2,2.2,2.7,2.8,4.3
	c0.5,1.5-0.3,3.2-1.8,3.7c-0.3,0.1-0.6,0.2-0.9,0.2H9.4c-1.6,0-2.9-1.3-2.9-2.9c0-0.3,0-0.6,0.2-0.9c0.6-1.6,1.5-3.1,2.8-4.3
	C11.5,21.5,14.4,20.3,17.5,20.3 M17.5,0c-2.6,0-5.1,1.2-6.9,3.1C7,7.3,7,13.5,10.6,17.6c0.4,0.5,0.9,0.9,1.5,1.3
	c-1.7,0.7-3.2,1.7-4.5,3c-1.5,1.5-2.7,3.3-3.4,5.3C3.7,28.8,4,30.6,4.9,32c1,1.4,2.7,2.3,4.4,2.3h16.3c1.8,0,3.4-0.9,4.4-2.3
	c1-1.4,1.3-3.2,0.7-4.8c-0.7-2-1.8-3.8-3.3-5.3c-1.3-1.3-2.8-2.3-4.5-3c0.5-0.4,1-0.8,1.5-1.3c3.7-4.1,3.6-10.4,0-14.5
	C22.6,1.2,20.1,0,17.5,0L17.5,0z"/>
</svg>
