<?xml version="1.0" encoding="utf-8"?>
<!-- Generator: Adobe Illustrator 24.0.0, SVG Export Plug-In . SVG Version: 6.00 Build 0)  -->
<svg version="1.1" id="Layer_1" xmlns="http://www.w3.org/2000/svg" xmlns:xlink="http://www.w3.org/1999/xlink" x="0px" y="0px"
	 viewBox="0 0 35 34.3" style="enable-background:new 0 0 35 34.3;" xml:space="preserve">
<style type="text/css">
	.st0{fill:#FFFFFF;}
</style>
<g id="Group_12" transform="translate(-937.452 -913.612)">
	<path id="Path_6" class="st0" d="M964,947.8h-17.7c0,0-0.1,0-0.1-0.1c-2.5-0.4-4.4-2.6-4.3-5.1v-9.5c0-3.7,0-7.4,0-11.2
		c0-2.2,1.4-4.1,3.5-4.8c0.2-0.1,0.3-0.2,0.3-0.4c-0.1-1,0.5-2,1.4-2.6c0.4-0.2,0.8-0.4,1.2-0.5H962c0,0,0,0,0.1,0
		c1.5,0.2,2.7,1.6,2.5,3.2c0,0.2,0.1,0.2,0.3,0.3c2.1,0.7,3.5,2.6,3.5,4.7c0,7,0,14,0,21c0,2.2-1.5,4.1-3.6,4.7
		C964.5,947.7,964.2,947.8,964,947.8z M964.7,919.3c0,0.1,0,0.3-0.1,0.4c-0.2,1.4-1.4,2.5-2.9,2.5c-4.4,0-8.8,0-13.2,0
		c-1.3,0-2.4-0.8-2.8-2.1c-0.1-0.3-0.1-0.5-0.2-0.8c0,0,0,0-0.1,0c0,0-0.1,0-0.1,0.1c-1,0.5-1.6,1.6-1.5,2.7v20.7
		c-0.1,1.7,1.2,3,2.9,3.1c0.1,0,0.1,0,0.2,0h16.4c0.3,0,0.6,0,0.9-0.1c1.4-0.4,2.3-1.6,2.2-3v-20.9
		C966.3,920.7,965.6,919.8,964.7,919.3L964.7,919.3z M955.1,915.7h-6.4c-0.6-0.1-1,0.3-1.1,0.9c0,0.1,0,0.1,0,0.2v2.3
		c-0.1,0.6,0.3,1,0.9,1.1c0.1,0,0.1,0,0.2,0h12.9c0.6,0,1-0.4,1.1-0.9c0-0.1,0-0.1,0-0.2c0-0.7,0-1.5,0-2.2c0.1-0.6-0.3-1.1-0.9-1.2
		c-0.1,0-0.2,0-0.3,0L955.1,915.7z"/>
	<path id="Path_9" class="st0" d="M948,940.2c-0.2,0.3-0.3,0.5-0.5,0.7c-0.3,0.5-1,0.6-1.5,0.3s-0.6-1-0.3-1.5c0,0,0-0.1,0.1-0.1
		c0.3-0.4,0.5-0.7,0.8-1.1c0.1-0.1,0.1-0.3,0-0.4c0,0,0,0,0,0c-0.3-0.4-0.5-0.7-0.8-1.1c-0.4-0.5-0.3-1.1,0.2-1.5
		c0.5-0.4,1.1-0.3,1.5,0.2c0,0,0.1,0.1,0.1,0.1c0.2,0.2,0.3,0.4,0.5,0.7c0.2-0.3,0.3-0.5,0.5-0.7c0.3-0.5,1-0.6,1.5-0.3c0,0,0,0,0,0
		c0.5,0.3,0.6,1,0.2,1.5c0,0,0,0,0,0c-0.3,0.4-0.5,0.8-0.8,1.1c-0.1,0.1-0.1,0.3,0,0.4c0,0,0,0,0,0c0.3,0.4,0.5,0.7,0.8,1.1
		c0.4,0.5,0.3,1.1-0.2,1.5c-0.5,0.4-1.1,0.3-1.5-0.2c0,0-0.1-0.1-0.1-0.1C948.4,940.7,948.2,940.5,948,940.2z"/>
	<path id="Path_10" class="st0" d="M948,930c0.6-0.7,1.2-1.4,1.8-2.1c0.4-0.5,1-0.5,1.5-0.2c0.2,0.2,0.3,0.4,0.4,0.6
		c0.1,0.3,0,0.7-0.2,0.9c-0.9,1.1-1.9,2.3-2.8,3.4c-0.4,0.4-1,0.5-1.5,0.2c-0.1-0.1-0.2-0.2-0.3-0.4c-0.4-0.7-0.8-1.5-1.1-2.3
		c-0.3-0.5-0.1-1.1,0.5-1.4c0,0,0,0,0,0c0.5-0.3,1.2,0,1.4,0.5C947.7,929.4,947.8,929.7,948,930z"/>
	<path id="Path_11" class="st0" d="M960.5,929.1h3c0.6-0.1,1.1,0.4,1.2,1c0,0,0,0.1,0,0.1c0,0.6-0.5,1.1-1.1,1.1c0,0-0.1,0-0.1,0h-6
		c-0.6,0.1-1.1-0.4-1.2-0.9c-0.1-0.6,0.4-1.1,0.9-1.2c0.1,0,0.2,0,0.3,0L960.5,929.1z"/>
	<path id="Path_12" class="st0" d="M960.5,939.6h-3c-0.6,0.1-1.1-0.4-1.2-0.9c0,0,0-0.1,0-0.1c0-0.6,0.5-1.1,1.1-1.1
		c0,0,0.1,0,0.1,0c2,0,4,0,6,0c0.6,0,1.1,0.4,1.1,1c0,0.6-0.4,1.1-1,1.1c-0.1,0-0.1,0-0.2,0L960.5,939.6z"/>
</g>
</svg>
