<?xml version="1.0" encoding="utf-8"?>
<!-- Generator: Adobe Illustrator 24.0.0, SVG Export Plug-In . SVG Version: 6.00 Build 0)  -->
<svg version="1.1" id="Layer_1" xmlns="http://www.w3.org/2000/svg" xmlns:xlink="http://www.w3.org/1999/xlink" x="0px" y="0px"
	 viewBox="0 0 35 34.3" style="enable-background:new 0 0 35 34.3;" xml:space="preserve">
<style type="text/css">
	.st0{fill:#FFFFFF;}
</style>
<g id="Group_16" transform="translate(-1221.694 -803.747)">
	<g id="Group_15" transform="translate(1221.694 803.747)">
		<g id="Group_14" transform="translate(0 0)">
			<path id="Path_13" class="st0" d="M17.4,28c-3.6,0-7.1-1.6-9.5-4.3c-0.5-0.6-0.5-1,0.1-1.3c1-0.6,2-1.1,3-1.6
				c0.8-0.4,1.7-0.6,2.6-0.9c0.7-0.2,1.1-1,0.9-1.7c0-0.1-0.1-0.2-0.1-0.3c-0.3-0.6-0.6-1.2-0.8-1.7c0-0.1-0.1-0.1-0.1-0.2
				c-0.8-0.7-0.8-1.7-1.1-2.6c-0.1-0.3,0-0.7,0.3-0.9c0.2-0.2,0.3-0.4,0.3-0.6c0.1-0.7,0.1-1.4,0.3-2c0.6-2.4,3-3.8,5.4-3.2
				c1.7,0.4,3,1.9,3.2,3.6c0.1,0.5,0.1,1.1,0.2,1.6c0.1,0.3,0.2,0.5,0.3,0.7c0.1,0.2,0.3,0.4,0.2,0.6c-0.1,0.8-0.3,1.6-0.7,2.4
				c-0.5,0.7-0.8,1.5-1.3,2.3c-0.3,0.4-0.3,1-0.1,1.5c0.1,0.3,0.3,0.5,0.6,0.6c0.8,0.3,1.6,0.5,2.3,0.8c1.1,0.4,2.1,0.9,3.1,1.4
				c1.2,0.7,1.2,1,0.3,2C24.3,26.5,20.9,28,17.4,28z"/>
			<path id="Path_14" class="st0" d="M11,3.7c0.4,0.5,0.7,1,1.1,1.5c-2,0.2-3.9,0.4-5.9,0.6C7,4,7.7,2.2,8.6,0.4
				C9,0.9,9.4,1.5,9.7,2c4-2,8.7-2.4,13-1c3.6,1.1,6.8,3.5,8.9,6.6c4,5.9,4,13.6-0.1,19.4c-0.5-0.4-1-0.7-1.6-1.1
				c4.8-6.8,3.1-16.2-3.7-21C21.7,1.7,15.9,1.3,11,3.7z"/>
			<path id="Path_15" class="st0" d="M3.5,7.4c0.5,0.4,1,0.7,1.6,1.1c-4.8,6.8-3.1,16.2,3.7,21c4.5,3.1,10.3,3.6,15.2,1.2
				c-0.4-0.5-0.7-1-1.1-1.5c2-0.2,3.9-0.4,5.9-0.6c-0.8,1.8-1.6,3.6-2.4,5.5c-0.4-0.6-0.8-1.1-1.2-1.6c-4.1,2.1-8.8,2.4-13.1,1
				c-3.7-1.2-6.8-3.6-8.9-6.9C-0.6,20.7-0.5,13.1,3.5,7.4z"/>
		</g>
	</g>
</g>
</svg>
