<svg viewBox="0 0 100 77.05" ><path d="M100,77.626a9.359,9.359,0,0,0-15.716-6.87,5.242,5.242,0,0,0-7.152,7.139L62.476,92.55V70.63h9.382a1.465,1.465,0,0,0,0-2.93H62.476V60.216a1.465,1.465,0,1,0-2.93,0V67.7H24.808a1.465,1.465,0,1,0,0,2.93H31.2L13.827,80.651l-.051.032V70.63h5.173a1.465,1.465,0,0,0,0-2.93H13.776V60.216a1.465,1.465,0,0,0-2.93,0V67.7H1.465a1.465,1.465,0,1,0,0,2.93h9.381v53.293H1.465a1.465,1.465,0,1,0,0,2.93h9.381v7.484a1.465,1.465,0,0,0,2.93,0v-7.484h36.39a1.465,1.465,0,1,0,0-2.93H42.123l6.178-3.564a3.427,3.427,0,0,0,2.232.832,3.5,3.5,0,0,0,1.176-.205l7.837-2.793v5.73H56.025a1.465,1.465,0,0,0,0,2.93h3.522v7.484a1.465,1.465,0,0,0,2.93,0v-7.484h9.382a1.465,1.465,0,0,0,0-2.93H62.476v-6.774l2.606-.929h0a1.477,1.477,0,0,0,.139-.058l.032-.017q.05-.025.1-.054l.041-.026c.03-.02.058-.04.087-.062l.034-.026c.038-.031.074-.063.109-.1l0,0L90.37,91.132a5.242,5.242,0,0,0,7.139-7.153A9.287,9.287,0,0,0,100,77.626Zm-4.814-4.548a6.428,6.428,0,0,1,.374,8.686L86.5,72.7a6.441,6.441,0,0,1,8.685.373ZM56.253,116.256l-4.244-4.244,2.5-7.012a3.357,3.357,0,0,1,2.676.5c.559.559.692,1.77.382,3.5,0,.008,0,.016,0,.025-.007.043-.012.086-.015.13,0,.017,0,.035,0,.052,0,.038,0,.076,0,.114a1.464,1.464,0,0,0,1.719,1.379c1.731-.309,2.942-.177,3.5.383a3.356,3.356,0,0,1,.5,2.675Zm8.584-7.246a4.643,4.643,0,0,0-2.291-1.22L75.611,94.726a1.465,1.465,0,0,0-2.072-2.072L60.475,105.718a4.442,4.442,0,0,0-3.513-3.509L79.068,80.1l3.511,3.511-4.258,4.258a1.465,1.465,0,0,0,2.072,2.072l4.258-4.258L88.163,89.2,66.056,111.3a4.641,4.641,0,0,0-1.218-2.293ZM59.547,70.63V80.693l-.04-.025L42.135,70.63ZM13.781,85.8a3.031,3.031,0,0,1,1.511-2.61L35.166,71.725a3.019,3.019,0,0,1,3.012,0L58.04,83.2a3.025,3.025,0,0,1,1.507,2.611V95.48l-6.459,6.459V91.23a5.958,5.958,0,0,0-2.967-5.148L39.64,80.025a5.959,5.959,0,0,0-5.943,0L23.211,86.072a5.961,5.961,0,0,0-2.976,5.146v12.105A5.958,5.958,0,0,0,23.2,108.47l10.482,6.057a5.958,5.958,0,0,0,5.943,0l10.486-6.049.057-.035-2.889,8.11a3.5,3.5,0,0,0-.2,1.127l-8.918,5.145a3.024,3.024,0,0,1-3.014,0L15.282,111.348a3.018,3.018,0,0,1-1.5-2.611Zm36.377,5.431v12.105a3.022,3.022,0,0,1-1.51,2.608l-10.486,6.049a3.021,3.021,0,0,1-3.013,0l-10.482-6.057a3.02,3.02,0,0,1-1.5-2.61V91.218a3.022,3.022,0,0,1,1.51-2.608L35.161,82.56a3.021,3.021,0,0,1,3.013,0l10.482,6.057a3.022,3.022,0,0,1,1.5,2.611ZM13.776,123.923V113.86l.04.025,17.371,10.038H13.776Zm36.95-5.7a.537.537,0,0,1-.687-.687l.881-2.472,2.278,2.278Zm43.861-30.02a2.316,2.316,0,0,1-3.271,0l-.045-.045L80.1,76.995l-.045-.045a2.313,2.313,0,0,1,3.271-3.271L94.587,84.934a2.316,2.316,0,0,1,0,3.271Z" transform="translate(0 -58.751)"/></svg>
