<svg viewBox="0 0 100.949 82.919" width="80" height="80" fill="#359445"><g transform="translate(0 -45.723)"><path d="M169.031,142.822a1.479,1.479,0,0,0,1.479-1.479v-3.067a1.479,1.479,0,1,0-2.957,0v3.067A1.479,1.479,0,0,0,169.031,142.822Z" transform="translate(-134.516 -73.118)"></path><path d="M330.927,142.822a1.479,1.479,0,0,0,1.479-1.479v-3.067a1.479,1.479,0,0,0-2.958,0v3.067A1.479,1.479,0,0,0,330.927,142.822Z" transform="translate(-264.492 -73.118)"></path><path d="M232.844,156.764a7.059,7.059,0,0,0,5.323-2.424,1.479,1.479,0,1,0-2.23-1.943,4.1,4.1,0,0,1-6.186,0,1.479,1.479,0,1,0-2.23,1.943A7.06,7.06,0,0,0,232.844,156.764Z" transform="translate(-182.37 -85.234)"></path><circle cx="1.649" cy="1.649" r="1.649" transform="translate(48.826 50.724)"></circle><path d="M237.253,197.869a1.479,1.479,0,0,0-1.921.827l-8.64,21.723a1.479,1.479,0,0,0,2.748,1.093l8.64-21.723A1.478,1.478,0,0,0,237.253,197.869Z" transform="translate(-181.912 -122.064)"></path><path d="M314.25,203.763a1.479,1.479,0,1,0-2.533,1.527l5.351,8.875-5.364,9.26a1.479,1.479,0,1,0,2.559,1.482l5.8-10.016a1.478,1.478,0,0,0-.013-1.5Z" transform="translate(-250.085 -126.305)"></path><path d="M159.257,214.165l5.351-8.875a1.479,1.479,0,0,0-2.533-1.527l-5.8,9.624a1.478,1.478,0,0,0-.013,1.5l5.8,10.016a1.479,1.479,0,1,0,2.559-1.482Z" transform="translate(-125.291 -126.306)"></path><path d="M43.161,90.765a1.479,1.479,0,0,0,1.479-1.479v-35.5a5.108,5.108,0,0,1,5.1-5.1h68.394a5.108,5.108,0,0,1,5.1,5.1V69.853a1.479,1.479,0,0,0,2.958,0V53.783a8.069,8.069,0,0,0-8.06-8.06H49.742a8.069,8.069,0,0,0-8.06,8.06v35.5A1.478,1.478,0,0,0,43.161,90.765Z" transform="translate(-33.464 0)"></path><path d="M94.7,148.021H92.731V117.877a1.479,1.479,0,1,0-2.957,0v30.144H82.2V104.466a6.3,6.3,0,0,0-6.293-6.293H25.037a6.3,6.3,0,0,0-6.293,6.293v43.555H11.176V137.31a1.479,1.479,0,0,0-2.957,0v10.711H6.25A6.257,6.257,0,0,0,0,154.271v5.269a11.223,11.223,0,0,0,11.211,11.211H89.738a11.223,11.223,0,0,0,11.211-11.211v-5.269a6.257,6.257,0,0,0-6.25-6.25Zm-56.52,2.957H62.77V154.1a3.807,3.807,0,0,1-3.8,3.8H41.98a3.807,3.807,0,0,1-3.8-3.8v-3.126ZM21.7,104.466a3.339,3.339,0,0,1,3.335-3.335H75.912a3.339,3.339,0,0,1,3.335,3.335v43.555H21.7Zm76.29,55.074a8.263,8.263,0,0,1-8.253,8.253H11.211a8.263,8.263,0,0,1-8.253-8.253v-5.269a3.3,3.3,0,0,1,3.292-3.293H35.221V154.1a6.768,6.768,0,0,0,6.759,6.761H58.968a6.768,6.768,0,0,0,6.759-6.761v-3.126H94.7a3.3,3.3,0,0,1,3.293,3.293Z" transform="translate(0 -42.109)"></path></g></svg>