<?xml version="1.0" encoding="utf-8"?>
<!-- Generator: Adobe Illustrator 24.0.0, SVG Export Plug-In . SVG Version: 6.00 Build 0)  -->
<svg version="1.1" id="Layer_1" xmlns="http://www.w3.org/2000/svg" xmlns:xlink="http://www.w3.org/1999/xlink" x="0px" y="0px"
	 viewBox="0 0 65 65" style="enable-background:new 0 0 65 65;" xml:space="preserve">
<style type="text/css">
	.st0{fill:#FFFFFF;}
	.st1{fill:#59BA49;}
</style>
<g id="Group_509" transform="translate(-1808 -5710)">
	<circle id="Ellipse_89" class="st0" cx="1840.9" cy="5743.1" r="27.5"/>
	<g id="Group_508" transform="translate(1808 5710)">
		<path id="Path_1117" class="st1" d="M28.4,27.8c0.2-0.6,0.5-1.2,0.8-1.7l-2.5-2.5c-0.6,0.6-1.2,1.2-1.8,1.8
			c-1.4,1.5-1.4,3.8,0,5.2c2.9,2.9,5.8,5.8,8.7,8.7c1,1,2.5,1.4,3.8,0.9c1.4-0.4,2.2-1.7,3.2-2.5c-0.9-0.9-1.8-1.8-2.6-2.6
			c-0.1,0-0.2,0.1-0.3,0.2c-1.4,1.1-3.4,1.1-4.8-0.1c-1.3-1.2-2.6-2.5-3.8-3.8C28.3,30.3,28,29,28.4,27.8z"/>
		<path id="Path_1118" class="st1" d="M32.5,0.6C14.8,0.6,0.4,14.9,0.4,32.6s14.4,32.1,32.1,32.1s32.1-14.4,32.1-32.1l0,0
			C64.6,14.9,50.2,0.6,32.5,0.6C32.5,0.6,32.5,0.6,32.5,0.6z M49.5,24.4c-0.8,0.3-1.5,0.7-2.3,1c-0.3-0.7-0.7-1.3-1.1-2
			c0.7-0.4,1.4-0.8,2.1-1.3C48.7,22.8,49.1,23.6,49.5,24.4z M45,17.9c0.6,0.7,1.2,1.3,1.8,1.9c-0.7,0.5-1.3,1.1-1.8,1.5
			c-0.6-0.5-1.1-1-1.7-1.5C43.8,19.2,44.4,18.6,45,17.9L45,17.9z M31,29.6c1.2,1.2,2.4,2.4,3.6,3.6c0.5,0.5,1.2,0.5,1.7,0
			c0,0,0,0,0,0c0.6-0.6,1.1-1.1,1.7-1.7c2,2,4.1,4.1,6.1,6.1l0,0c0,0,0,0,0,0l0,0c-1.2,1.2-2.4,2.5-3.7,3.7c-2.3,2.1-5.9,2.1-8.2,0
			c-0.3-0.2-0.5-0.5-0.8-0.8l-8.1-8.1c-2.3-2.2-2.6-5.8-0.6-8.3c0.1-0.1,0.2-0.3,0.3-0.4c1.2-1.2,2.4-2.4,3.7-3.6c2,2,4,4,6.1,6.1
			c-0.1,0.1-0.1,0.2-0.2,0.2c-0.5,0.5-1,1-1.4,1.5C30.6,28.3,30.6,29.1,31,29.6C31,29.6,31,29.6,31,29.6z M48,41.8
			c-4.9,7.5-14.5,10.5-22.8,7c-0.2-0.1-0.4-0.1-0.6,0c-3.2,1.1-6.4,2.2-9.6,3.3c-0.1,0-0.2,0.1-0.3,0.1h-0.1
			c0.2-0.8,0.3-1.7,0.5-2.5c0.5-2.5,1.1-5,1.6-7.6c0-0.2,0-0.4-0.1-0.6c-1.1-1.8-1.9-3.8-2.4-5.8c-1-4.3-0.3-8.7,1.7-12.6
			c2.3-4.5,6.4-7.8,11.2-9.1c5.1-1.6,10.7-0.7,15.2,2.2c0.1,0.1,0.2,0.1,0.3,0.2c-0.5,0.7-0.9,1.3-1.4,2c-0.6-0.3-1.1-0.6-1.6-0.9
			c-7.9-4.1-17.5-1-21.6,6.9c-1.3,2.6-1.9,5.5-1.8,8.4c0.2,2.9,1.1,5.7,2.8,8c0.2,0.3,0.3,0.6,0.2,1c-0.5,2.1-0.9,4.1-1.3,6.2
			c0,0.1,0,0.2,0,0.4c0.2,0,0.3-0.1,0.4-0.1c2.1-0.7,4.2-1.4,6.2-2.2c0.2-0.1,0.5-0.1,0.7,0c6.2,3.1,13.6,1.8,18.5-3.1
			c2.3-2.3,3.8-5.2,4.4-8.3c0.4-2.2,0.4-4.5-0.1-6.7c0-0.1-0.1-0.3-0.1-0.4c0,0,0-0.1,0-0.1c0.8-0.2,1.5-0.4,2.4-0.6
			c0.2,1.2,0.4,2.3,0.5,3.5C51.3,34.4,50.3,38.4,48,41.8z"/>
	</g>
</g>
</svg>